<?xml version="1.0" encoding="UTF-8" standalone="no"?>
<svg
        xmlns:dc="http://purl.org/dc/elements/1.1/"
        xmlns:cc="http://creativecommons.org/ns#"
        xmlns:rdf="http://www.w3.org/1999/02/22-rdf-syntax-ns#"
        xmlns:svg="http://www.w3.org/2000/svg"
        xmlns="http://www.w3.org/2000/svg"
        viewBox="0 0 76.241547 22.491235"
        id="svg33"
        height="22.491238"
        width="76.241547"
        version="1.1">
    <metadata
            id="metadata39">
        <rdf:RDF>
            <cc:Work
                    rdf:about="">
                <dc:format>image/svg+xml</dc:format>
                <dc:type
                        rdf:resource="http://purl.org/dc/dcmitype/StillImage"/>
                <dc:title></dc:title>
            </cc:Work>
        </rdf:RDF>
    </metadata>
    <defs
            id="defs37"/>
    <path
            id="path2"
            style="fill:#d4bcc9;fill-opacity:0;fill-rule:evenodd;stroke-width:1.29962146"
            d="M -88.099918,-142.31771 V 45.56452 H 247.14109 v -187.88223 z"/>
    <g
            id="Layer1000"
            transform="matrix(0.81716074,0,0,0.81716074,-52.017403,-61.097441)">
        <path
                id="path16"
                style="fill:#868789;fill-rule:evenodd"
                d="m 106.3324,94.0734 c -0.3821,0.3081 -0.8053,0.4623 -1.2694,0.4623 -0.5301,0 -0.8566,-0.148 -0.9799,-0.4436 -0.0286,-0.07 -0.0431,-0.1511 -0.0431,-0.2435 0,-0.0924 0.0473,-0.1922 0.1417,-0.2988 0.148,-0.1684 0.3532,-0.2528 0.6163,-0.2528 0.1766,0 0.3543,0.032 0.5329,0.0955 0.1789,0.0638 0.4961,0.2169 0.9522,0.4592 0.2052,-0.1973 0.4107,-0.46 0.6162,-0.7889 0.2052,-0.3285 0.383,-0.6457 0.5329,-0.9518 0.15,-0.3062 0.3328,-0.6398 0.5485,-1.0015 0.2155,-0.3614 0.4303,-0.6613 0.6438,-0.8995 -0.4601,-0.2752 -0.9488,-0.413 -1.4664,-0.413 -0.2137,0 -0.4314,0.0227 -0.6534,0.0678 -0.6366,0.1358 -1.1214,0.413 -1.4541,0.832 -0.2053,0.2548 -0.3082,0.4972 -0.3082,0.727 0,0.3121 0.15,0.5157 0.4499,0.6101 0.1068,0.0289 0.1993,0.043 0.2772,0.043 0.0782,0 0.1656,-0.0121 0.2619,-0.0368 0.0967,-0.0247 0.1922,-0.0822 0.2866,-0.1726 0.1809,-0.1806 0.2772,-0.3493 0.2897,-0.5052 0.004,-0.0371 0.0278,-0.0504 0.0709,-0.0402 0.0431,0.0105 0.0606,0.0422 0.0524,0.0955 -0.0411,0.2999 -0.1993,0.5281 -0.4745,0.684 -0.1684,0.0904 -0.337,0.1358 -0.5054,0.1358 l -0.3203,-0.0556 c -0.3124,-0.1068 -0.5176,-0.3061 -0.6163,-0.5978 -0.0411,-0.1108 -0.0615,-0.2217 -0.0615,-0.3328 0,-0.2259 0.0842,-0.4496 0.2526,-0.6715 0.3614,-0.4847 1.0023,-0.7948 1.9224,-0.9303 0.1809,-0.0247 0.3595,-0.0372 0.5361,-0.0372 0.5711,0 1.1154,0.1355 1.633,0.4068 0.1602,-0.1848 0.3081,-0.3257 0.4436,-0.4221 0.1355,-0.0966 0.2444,-0.1448 0.3266,-0.1448 0.0453,0 0.072,0.0093 0.0802,0.0277 0.008,0.0185 0.007,0.0329 -0.003,0.0431 -0.0102,0.0102 -0.0235,0.0153 -0.04,0.0153 -0.07,0 -0.1604,0.074 -0.2713,0.222 -0.1108,0.148 -0.2012,0.2854 -0.271,0.4127 0.4394,0.2917 0.7742,0.6656 1.0044,1.1217 0.1848,0.3654 0.2772,0.7639 0.2772,1.1954 0,0.534 -0.1273,0.9592 -0.3821,1.2755 -0.2095,0.2588 -0.4641,0.4414 -0.764,0.5483 -0.3574,0.1272 -0.7106,0.191 -1.0598,0.191 -0.7067,0 -1.3085,-0.1437 -1.8054,-0.4314 z m 0.1477,-0.1108 c 0.415,0.2466 0.9017,0.3696 1.4604,0.3696 0.6491,0 1.1667,-0.1848 1.5528,-0.5545 0.3081,-0.2999 0.4623,-0.7149 0.4623,-1.2447 0,-0.3778 -0.074,-0.7333 -0.2219,-1.0661 -0.1848,-0.4229 -0.4581,-0.7764 -0.8195,-1.0598 -0.1191,0.1848 -0.3481,0.5578 -0.6871,1.1185 -0.3388,0.5607 -0.6254,1.0157 -0.8595,1.3649 -0.2342,0.3492 -0.419,0.5967 -0.5547,0.7424 -0.1355,0.146 -0.2464,0.2557 -0.3328,0.3297 z m -0.3572,0.0124 c -0.4808,-0.2301 -0.7846,-0.3676 -0.9122,-0.413 -0.1273,-0.0451 -0.2514,-0.0677 -0.3727,-0.0677 -0.1211,0 -0.2177,0.045 -0.2895,0.1355 -0.072,0.0904 -0.108,0.1715 -0.108,0.2435 0,0.072 0.0165,0.1406 0.0494,0.2063 0.0861,0.1766 0.263,0.2651 0.53,0.2651 0.3943,0 0.762,-0.1233 1.103,-0.3697 z m 4.7693,-0.6287 c -0.0576,0.1397 -0.0865,0.2959 -0.0865,0.4683 0,0.1151 0.0258,0.2066 0.0771,0.2744 0.0513,0.0677 0.1242,0.1015 0.2189,0.1015 0.3736,0 0.7126,-0.3513 1.0165,-1.0537 0.0289,-0.0657 0.0638,-0.0944 0.1049,-0.0862 0.0164,0.004 0.0246,0.0145 0.0246,0.0309 0,0.0165 -0.0462,0.1242 -0.1386,0.3235 -0.0924,0.1993 -0.186,0.3605 -0.2803,0.4836 -0.2095,0.2877 -0.4683,0.4314 -0.7765,0.4314 -0.1644,0 -0.3041,-0.0533 -0.4189,-0.1602 -0.1151,-0.1068 -0.1726,-0.2525 -0.1726,-0.4376 0,-0.1848 0.0442,-0.381 0.1323,-0.5885 0.0885,-0.2072 0.2087,-0.4005 0.3606,-0.5791 0.1519,-0.1786 0.3266,-0.3093 0.5238,-0.3912 0.0944,-0.0411 0.1849,-0.0618 0.271,-0.0618 0.0862,0 0.1664,0.0247 0.2404,0.074 0.0697,0.0575 0.1046,0.1213 0.1046,0.191 0,0.2467 -0.1477,0.4828 -0.4436,0.7087 -0.0904,0.0697 -0.2177,0.1324 -0.3818,0.1879 -0.1644,0.0556 -0.2897,0.0831 -0.3759,0.0831 z m 1.0352,-0.9859 c 0,-0.0822 -0.0329,-0.123 -0.0986,-0.123 -0.1151,0 -0.2897,0.1414 -0.5239,0.4249 -0.1397,0.1726 -0.263,0.3657 -0.3696,0.5794 0.0697,0 0.1715,-0.0247 0.305,-0.074 0.1335,-0.0493 0.2494,-0.1151 0.3481,-0.1973 0.2259,-0.193 0.339,-0.3963 0.339,-0.61 z m 0.7396,1.8179 c 0.0533,0.0082 0.0901,0.0122 0.1108,0.0122 0.1641,0 0.3265,-0.0964 0.4867,-0.2895 0.0862,-0.1068 0.2404,-0.3758 0.4621,-0.8073 0.008,-0.0204 0.0226,-0.0309 0.0433,-0.0309 0.0369,-0.0039 0.0553,0.0105 0.0553,0.0434 0,0.0082 -0.009,0.0318 -0.0278,0.0709 -0.0184,0.0388 -0.0357,0.0779 -0.0521,0.117 -0.0165,0.0389 -0.0431,0.0956 -0.0803,0.1693 -0.0368,0.074 -0.0688,0.1335 -0.0955,0.1788 -0.0266,0.0451 -0.0606,0.1007 -0.1018,0.1664 -0.0408,0.0658 -0.0819,0.1171 -0.123,0.154 l -0.1295,0.1354 c -0.0698,0.0701 -0.152,0.1194 -0.2463,0.148 -0.1523,0.0493 -0.3,0.0533 -0.4437,0.0125 -0.0946,0.0408 -0.1788,0.0615 -0.2528,0.0615 -0.2917,0 -0.4683,-0.1151 -0.5298,-0.345 -0.0125,-0.0536 -0.0184,-0.1182 -0.0184,-0.1941 0,-0.076 0.0255,-0.1489 0.0768,-0.2189 0.0513,-0.0697 0.106,-0.1069 0.1633,-0.1108 0.2094,-0.3986 0.3883,-0.758 0.5363,-1.0783 0.1641,-0.3492 0.3551,-0.5239 0.5728,-0.5239 0.0576,0 0.114,0.0134 0.1696,0.04 0.0555,0.0269 0.0759,0.0567 0.0615,0.0896 -0.0142,0.0326 -0.044,0.0388 -0.0893,0.0184 -0.0451,-0.0207 -0.0842,-0.0309 -0.1171,-0.0309 -0.0329,0 -0.0615,0.0062 -0.0862,0.0184 -0.1397,0.0658 -0.2094,0.2075 -0.2094,0.4252 0,0.1151 0.0164,0.2095 0.0493,0.2835 0.0329,0.074 0.0697,0.1542 0.1108,0.2404 0.0944,0.2134 0.1417,0.388 0.1417,0.5238 0,0.1355 -0.043,0.269 -0.1295,0.4006 -0.0862,0.1312 -0.1888,0.2381 -0.3078,0.3203 z m -0.2098,-0.0431 c 0.1808,-0.1398 0.2713,-0.3657 0.2713,-0.6778 0,-0.1275 -0.0145,-0.3022 -0.0431,-0.5238 -0.0289,-0.222 -0.0431,-0.3719 -0.0431,-0.4499 0,-0.0779 0.002,-0.1315 0.006,-0.1601 -0.3121,0.6244 -0.5052,1.0043 -0.5792,1.1398 0.0862,0 0.1293,0.0618 0.1293,0.1851 0,0.2423 0.0865,0.4045 0.2588,0.4867 z m -0.4621,-0.1664 c 0,0.0246 0.002,0.0513 0.006,0.0799 0.0329,0.1111 0.1088,0.1664 0.2279,0.1664 0.0493,0 0.0904,-0.0082 0.1233,-0.0246 -0.1519,-0.0944 -0.2341,-0.2484 -0.2466,-0.4621 -0.0737,0.074 -0.1109,0.1542 -0.1109,0.2404 z m 2.5634,-2.0704 c -0.0575,0.0493 -0.121,0.0739 -0.191,0.0739 -0.0698,0 -0.1253,-0.0246 -0.1664,-0.0739 -0.0411,-0.0494 -0.0576,-0.1089 -0.0494,-0.1786 0.0125,-0.07 0.0474,-0.1296 0.1049,-0.1789 0.0576,-0.0493 0.1214,-0.074 0.1911,-0.074 0.0697,0 0.1264,0.0247 0.1695,0.074 0.0431,0.0493 0.0584,0.1089 0.0462,0.1789 -0.0125,0.0697 -0.0473,0.1292 -0.1049,0.1786 z m -0.6038,2.2614 c 0.078,0 0.1602,-0.0391 0.2464,-0.117 0.1522,-0.152 0.3452,-0.4624 0.5794,-0.9306 0.0286,-0.0616 0.0575,-0.08 0.0861,-0.0553 0.008,0.0082 0.0125,0.0215 0.0125,0.04 0,0.0184 -0.0164,0.0637 -0.0493,0.1354 -0.0329,0.072 -0.0627,0.1367 -0.0896,0.1942 -0.0266,0.0576 -0.0779,0.1511 -0.1539,0.2804 -0.076,0.1295 -0.1449,0.229 -0.2064,0.2987 -0.1683,0.1931 -0.3276,0.2897 -0.4776,0.2897 -0.15,0 -0.2577,-0.045 -0.3234,-0.1355 -0.0658,-0.0904 -0.0987,-0.191 -0.0987,-0.3018 0,-0.1112 0.0267,-0.2322 0.0802,-0.3637 l 0.3943,-1.0043 c 0.008,-0.0247 0.0122,-0.0576 0.0122,-0.0987 0,-0.0411 -0.0246,-0.0944 -0.074,-0.1602 l 0.3391,-0.0062 c 0.0944,0 0.1499,0.0176 0.1664,0.0525 0.0164,0.0348 0.004,0.0892 -0.0369,0.1632 l -0.4929,1.1523 c -0.07,0.152 -0.1049,0.2815 -0.1049,0.3881 0,0.1193 0.0638,0.1788 0.191,0.1788 z m 0.4065,2.0827 c -0.3861,0 -0.5791,-0.1582 -0.5791,-0.4746 0,-0.2627 0.1786,-0.4989 0.536,-0.7083 0.3039,-0.1769 0.6923,-0.3433 1.1645,-0.4992 0.218,-0.07 0.3759,-0.1253 0.4745,-0.1664 0.1069,-0.3124 0.1602,-0.6531 0.1602,-1.023 0,-0.074 -0.004,-0.1293 -0.0122,-0.1664 -0.1151,0.2341 -0.2733,0.4745 -0.4745,0.7211 -0.2381,0.2957 -0.4745,0.4107 -0.7087,0.345 -0.2134,-0.0904 -0.3203,-0.267 -0.3203,-0.5298 0,-0.3535 0.1766,-0.7416 0.5298,-1.1648 0.1933,-0.2299 0.4192,-0.3758 0.678,-0.4374 0.0698,-0.0207 0.1395,-0.0309 0.2095,-0.0309 0.1848,0 0.3654,0.0616 0.5423,0.1849 0.0655,0.0535 0.0984,0.0986 0.0984,0.1355 0,0.0371 -0.0122,0.0731 -0.0369,0.108 -0.0247,0.0348 -0.0504,0.0388 -0.0771,0.0121 -0.0266,-0.0266 -0.0442,-0.0521 -0.0524,-0.0768 -0.0533,-0.1522 -0.1395,-0.2282 -0.2588,-0.2282 -0.2177,0 -0.4621,0.152 -0.7331,0.4561 -0.1522,0.1727 -0.2834,0.3575 -0.3946,0.5545 -0.1355,0.2466 -0.2032,0.4365 -0.2032,0.57 0,0.1335 0.0411,0.2228 0.1233,0.2682 0.0286,0.0122 0.0575,0.0184 0.0862,0.0184 0.0944,0 0.2126,-0.0646 0.3543,-0.1942 0.1417,-0.1292 0.2733,-0.2936 0.3943,-0.4929 0.1213,-0.1993 0.1984,-0.3543 0.2313,-0.4652 0.0326,-0.1108 0.0729,-0.1808 0.1199,-0.2094 0.0474,-0.029 0.0998,-0.0454 0.1573,-0.0494 0.0576,-0.0042 0.0964,-0.0144 0.1171,-0.0309 0.0329,0.1849 0.0493,0.4017 0.0493,0.6503 0,0.2483 -0.0433,0.5309 -0.1295,0.8473 0.1891,-0.1358 0.3234,-0.2568 0.4036,-0.3637 0.0803,-0.1069 0.1438,-0.2033 0.1911,-0.2897 0.0473,-0.0862 0.0893,-0.1715 0.1264,-0.2557 0.0369,-0.0842 0.0615,-0.1386 0.0737,-0.1633 0.0125,-0.0246 0.0329,-0.0399 0.0618,-0.0462 0.0287,-0.0062 0.0431,0.0071 0.0431,0.04 0,0.0207 -0.006,0.0454 -0.0184,0.074 -0.1809,0.3739 -0.332,0.644 -0.453,0.8104 -0.1213,0.1664 -0.2866,0.2988 -0.4961,0.3974 -0.0986,0.2792 -0.2412,0.5567 -0.4283,0.8317 -0.1868,0.2753 -0.422,0.5176 -0.7055,0.7274 -0.2835,0.2095 -0.5647,0.3141 -0.8442,0.3141 z m -0.4498,-0.3575 c 0,0.1562 0.1006,0.2341 0.3019,0.2341 0.1193,0 0.2537,-0.0348 0.4036,-0.1045 0.15,-0.0698 0.2744,-0.1418 0.3728,-0.2158 0.1686,-0.1355 0.3534,-0.3367 0.5547,-0.6037 0.1519,-0.2138 0.269,-0.4213 0.3512,-0.6225 l -0.2157,0.074 c -0.6409,0.2219 -1.0928,0.4189 -1.3555,0.5915 -0.1931,0.1273 -0.3206,0.2897 -0.3821,0.4868 -0.0204,0.0617 -0.0309,0.115 -0.0309,0.1601 z m 5.1514,-3.6108 c -0.5054,0.8873 -0.758,1.4667 -0.758,1.7377 0,0.1068 0.0391,0.1601 0.1171,0.1601 0.2094,0 0.4909,-0.3551 0.8441,-1.0658 0.0247,-0.0575 0.0493,-0.0802 0.074,-0.068 0.0247,0.0124 0.0371,0.0289 0.0371,0.0493 0,0.0207 -0.008,0.0454 -0.0246,0.074 -0.2177,0.4396 -0.4017,0.7427 -0.5516,0.9091 -0.15,0.1661 -0.3,0.2494 -0.4499,0.2494 -0.15,0 -0.2639,-0.0575 -0.3419,-0.1726 -0.0411,-0.0533 -0.0618,-0.1262 -0.0618,-0.2186 0,-0.0924 0.0207,-0.2044 0.0618,-0.3359 0.0411,-0.1315 0.154,-0.345 0.3388,-0.6409 0.0453,-0.074 0.0677,-0.1324 0.0677,-0.1755 0,-0.0433 -0.0348,-0.0649 -0.1046,-0.0649 -0.0697,0 -0.2032,0.0924 -0.4005,0.2775 -0.2957,0.271 -0.5814,0.6778 -0.8566,1.2201 -0.0247,0.0411 -0.0522,0.0666 -0.0831,0.0768 -0.0309,0.0105 -0.0916,0.0176 -0.1817,0.0215 -0.0904,0.0043 -0.15,0.0145 -0.1789,0.0309 0.0658,-0.1315 0.1953,-0.4005 0.3884,-0.8073 0.345,-0.7188 0.5709,-1.1296 0.6777,-1.2322 0.0494,-0.0493 0.1171,-0.074 0.2033,-0.074 0.0164,0 0.0587,0.0062 0.1264,0.0184 0.0678,0.0125 0.1182,0.0145 0.1508,0.0063 -0.1519,0.0822 -0.4005,0.4683 -0.7455,1.1585 0.193,-0.2384 0.3688,-0.4283 0.527,-0.5701 0.1581,-0.1417 0.3481,-0.2732 0.57,-0.3943 0.2217,-0.1213 0.3841,-0.1819 0.4867,-0.1819 0.0247,0 0.0471,0.0042 0.0678,0.0124 z m 0.4745,1.0721 c -0.0576,0.1397 -0.0865,0.2959 -0.0865,0.4683 0,0.1151 0.0258,0.2066 0.0771,0.2744 0.0513,0.0677 0.1242,0.1015 0.2189,0.1015 0.3736,0 0.7126,-0.3513 1.0165,-1.0537 0.0289,-0.0657 0.0638,-0.0944 0.1049,-0.0862 0.0164,0.004 0.0246,0.0145 0.0246,0.0309 0,0.0165 -0.0462,0.1242 -0.1386,0.3235 -0.0924,0.1993 -0.1859,0.3605 -0.2803,0.4836 -0.2095,0.2877 -0.4683,0.4314 -0.7765,0.4314 -0.1644,0 -0.3041,-0.0533 -0.4189,-0.1602 -0.1151,-0.1068 -0.1726,-0.2525 -0.1726,-0.4376 0,-0.1848 0.0442,-0.381 0.1323,-0.5885 0.0885,-0.2072 0.2087,-0.4005 0.3606,-0.5791 0.1519,-0.1786 0.3266,-0.3093 0.5238,-0.3912 0.0944,-0.0411 0.1849,-0.0618 0.271,-0.0618 0.0862,0 0.1664,0.0247 0.2404,0.074 0.0697,0.0575 0.1046,0.1213 0.1046,0.191 0,0.2467 -0.1477,0.4828 -0.4436,0.7087 -0.0904,0.0697 -0.2177,0.1324 -0.3818,0.1879 -0.1644,0.0556 -0.2897,0.0831 -0.3759,0.0831 z m 1.0352,-0.9859 c 0,-0.0822 -0.0329,-0.123 -0.0986,-0.123 -0.1151,0 -0.2897,0.1414 -0.5239,0.4249 -0.1397,0.1726 -0.263,0.3657 -0.3696,0.5794 0.0697,0 0.1715,-0.0247 0.305,-0.074 0.1335,-0.0493 0.2494,-0.1151 0.3481,-0.1973 0.2259,-0.193 0.339,-0.3963 0.339,-0.61 z m 1.0415,-0.536 c 0,0.1848 -0.1171,0.3594 -0.3513,0.5238 0.082,0.004 0.1919,0.0063 0.3297,0.0063 0.1375,0 0.311,-0.0105 0.5205,-0.0309 0.008,0.0121 0.0124,0.045 0.0124,0.0986 0,0.0533 -0.0246,0.1324 -0.074,0.2373 -0.0493,0.1046 -0.0935,0.195 -0.1323,0.271 -0.0392,0.0759 -0.076,0.1479 -0.1112,0.2157 -0.0348,0.0677 -0.0737,0.1508 -0.117,0.2494 -0.0431,0.0987 -0.0791,0.1891 -0.1077,0.2713 -0.1027,0.3121 -0.0862,0.4683 0.0493,0.4683 0.1726,0 0.4272,-0.343 0.7639,-1.029 0.0289,-0.0536 0.0525,-0.074 0.0709,-0.0618 0.0187,0.0125 0.0278,0.0278 0.0278,0.0462 0,0.0184 -0.0267,0.0822 -0.08,0.1911 -0.0536,0.1088 -0.1111,0.2208 -0.1726,0.3359 -0.0615,0.1151 -0.1582,0.2486 -0.2897,0.4005 -0.1559,0.1888 -0.3059,0.2835 -0.4499,0.2835 -0.1601,0 -0.271,-0.0967 -0.3325,-0.2897 -0.0124,-0.0369 -0.0187,-0.0924 -0.0187,-0.1664 0,-0.074 0.0238,-0.1726 0.0709,-0.2957 0.0473,-0.1233 0.1222,-0.2732 0.2251,-0.4498 0.1026,-0.1766 0.1601,-0.2804 0.1723,-0.3113 0.0125,-0.0309 0.0187,-0.0606 0.0187,-0.0893 0,-0.1272 -0.1644,-0.1953 -0.4929,-0.2032 l -0.074,0.197 c -0.2588,0.6778 -0.5074,1.1319 -0.7458,1.3618 -0.0408,0.0371 -0.0615,0.0246 -0.0615,-0.0369 0,-0.0125 0.004,-0.0266 0.0125,-0.0431 0.2298,-0.3041 0.4291,-0.6636 0.5975,-1.0786 0.1684,-0.4147 0.2854,-0.809 0.3512,-1.1829 0.0247,-0.1272 0.0822,-0.191 0.1726,-0.191 0.0905,0 0.1562,0.0575 0.197,0.1726 0.0125,0.0369 0.0188,0.08 0.0188,0.1293 z m 3.6663,2.1135 c 0,0.1315 0.0533,0.1973 0.1601,0.1973 0.1931,0 0.4499,-0.3226 0.7702,-0.9675 0.0125,-0.0246 0.0238,-0.0493 0.034,-0.074 0.0102,-0.0246 0.0267,-0.0411 0.0494,-0.0493 0.0223,-0.0082 0.0379,-0.0031 0.0462,0.0156 0.008,0.0184 0.004,0.0482 -0.0125,0.0893 -0.3286,0.7639 -0.6613,1.146 -0.9981,1.146 -0.1111,0 -0.1993,-0.0493 -0.265,-0.1479 -0.0658,-0.0987 -0.0987,-0.1962 -0.0987,-0.2926 0,-0.0966 0.0102,-0.1859 0.0309,-0.2681 -0.2384,0.3943 -0.4436,0.6182 -0.6162,0.6718 -0.0494,0.0204 -0.0975,0.0306 -0.1449,0.0306 -0.047,0 -0.0935,-0.006 -0.1386,-0.0184 -0.2013,-0.0533 -0.3019,-0.2138 -0.3019,-0.4808 0,-0.1805 0.0462,-0.381 0.1386,-0.6006 0.0924,-0.2197 0.2228,-0.4303 0.3912,-0.6316 0.1687,-0.2013 0.3719,-0.3368 0.61,-0.4068 0.0865,-0.0286 0.188,-0.0431 0.305,-0.0431 0.1174,0 0.2478,0.0369 0.3915,0.1109 0.2792,-0.5258 0.5176,-1.0126 0.7146,-1.4604 0.0576,-0.1355 0.1142,-0.2228 0.1695,-0.2617 0.0556,-0.0391 0.1069,-0.0586 0.1542,-0.0586 0.0471,0 0.076,0 0.0862,0 0.0102,0 0.0493,0.0051 0.1171,0.0153 0.0677,0.0104 0.1202,0.0133 0.157,0.0093 -0.0944,0.0862 -0.345,0.5051 -0.7517,1.2572 -0.5176,0.9612 -0.8297,1.6018 -0.9366,1.9224 -0.0411,0.1191 -0.0615,0.2177 -0.0615,0.2957 z m 0.3019,-1.6206 c -0.0533,-0.0533 -0.1284,-0.0799 -0.2248,-0.0799 -0.0967,0 -0.2313,0.0717 -0.4037,0.2154 -0.2752,0.2302 -0.5034,0.5137 -0.684,0.8504 -0.1193,0.222 -0.1788,0.4048 -0.1788,0.5485 0,0.0658 0.0133,0.1253 0.0402,0.1786 0.0267,0.0536 0.0686,0.0802 0.1262,0.0802 0.1397,0 0.3123,-0.1437 0.5176,-0.4314 0.2055,-0.2874 0.4745,-0.7416 0.8073,-1.3618 z m 0.9306,1.029 c -0.0576,0.1397 -0.0865,0.2959 -0.0865,0.4683 0,0.1151 0.0258,0.2066 0.0771,0.2744 0.0513,0.0677 0.1242,0.1015 0.2189,0.1015 0.3736,0 0.7126,-0.3513 1.0165,-1.0537 0.0289,-0.0657 0.0638,-0.0944 0.1049,-0.0862 0.0164,0.004 0.0246,0.0145 0.0246,0.0309 0,0.0165 -0.0462,0.1242 -0.1386,0.3235 -0.0924,0.1993 -0.186,0.3605 -0.2803,0.4836 -0.2095,0.2877 -0.4683,0.4314 -0.7765,0.4314 -0.1644,0 -0.3041,-0.0533 -0.4189,-0.1602 -0.1151,-0.1068 -0.1726,-0.2525 -0.1726,-0.4376 0,-0.1848 0.0442,-0.381 0.1323,-0.5885 0.0885,-0.2072 0.2087,-0.4005 0.3606,-0.5791 0.1519,-0.1786 0.3266,-0.3093 0.5238,-0.3912 0.0944,-0.0411 0.1849,-0.0618 0.271,-0.0618 0.0862,0 0.1664,0.0247 0.2404,0.074 0.0697,0.0575 0.1046,0.1213 0.1046,0.191 0,0.2467 -0.1477,0.4828 -0.4436,0.7087 -0.0904,0.0697 -0.2177,0.1324 -0.3818,0.1879 -0.1644,0.0556 -0.2897,0.0831 -0.3759,0.0831 z m 1.0352,-0.9859 c 0,-0.0822 -0.0329,-0.123 -0.0986,-0.123 -0.1151,0 -0.2897,0.1414 -0.5239,0.4249 -0.1397,0.1726 -0.263,0.3657 -0.3696,0.5794 0.0697,0 0.1715,-0.0247 0.305,-0.074 0.1335,-0.0493 0.2494,-0.1151 0.3481,-0.1973 0.2259,-0.193 0.339,-0.3963 0.339,-0.61 z m 7.0061,-2.249 c 0,-0.1437 -0.0658,-0.2795 -0.1973,-0.4068 -0.1888,-0.1805 -0.4498,-0.271 -0.7823,-0.271 -0.2917,0 -0.6143,0.0635 -0.9675,0.1911 -0.1848,0.0655 -0.3453,0.1559 -0.4808,0.271 -0.2094,0.1808 -0.314,0.3614 -0.314,0.5423 0,0.2423 0.1539,0.46 0.462,0.6531 0.1151,0.07 0.3461,0.1839 0.6931,0.3421 0.3472,0.1582 0.6009,0.2866 0.7611,0.3849 0.2423,0.148 0.4099,0.3062 0.5023,0.4746 0.0924,0.1683 0.1386,0.3245 0.1386,0.4682 0,0.2056 -0.0678,0.415 -0.2035,0.6288 -0.2381,0.3818 -0.5874,0.7106 -1.0474,0.9859 -0.5298,0.3203 -1.1688,0.4804 -1.9165,0.4804 -0.7189,0 -1.2898,-0.1828 -1.713,-0.5485 -0.3286,-0.2792 -0.493,-0.6386 -0.493,-1.0783 0,-0.2792 0.1018,-0.5873 0.305,-0.9241 0.2036,-0.337 0.453,-0.5751 0.7487,-0.7149 0.0618,-0.0246 0.108,-0.0328 0.1389,-0.0246 0.0306,0.0082 0.005,0.0473 -0.0771,0.117 -0.1766,0.1398 -0.3184,0.2937 -0.4252,0.4621 -0.2302,0.3617 -0.345,0.754 -0.345,1.1769 0,0.2795 0.0779,0.5239 0.2341,0.7334 0.2793,0.3739 0.764,0.5853 1.4542,0.6346 0.078,0.0083 0.1942,0.0125 0.3481,0.0125 0.1539,0 0.3637,-0.0278 0.6284,-0.0833 0.2651,-0.0553 0.5208,-0.1469 0.7674,-0.2741 0.5298,-0.2795 0.8728,-0.641 1.029,-1.0846 0.0493,-0.1315 0.0739,-0.2588 0.0739,-0.3821 0,-0.2792 -0.1252,-0.5258 -0.3758,-0.7393 -0.1355,-0.1068 -0.4119,-0.2497 -0.8289,-0.4283 -0.417,-0.1786 -0.6973,-0.3152 -0.841,-0.4099 -0.3164,-0.2134 -0.4745,-0.4663 -0.4745,-0.7577 0,-0.2548 0.1417,-0.5034 0.4252,-0.7458 0.4067,-0.3449 0.9816,-0.5176 1.7251,-0.5176 0.3493,0 0.6339,0.0525 0.8535,0.1574 0.22,0.1046 0.3544,0.2616 0.4037,0.4714 0.008,0.0408 0.0125,0.0819 0.0125,0.123 0,0.1601 -0.074,0.3041 -0.222,0.4314 -0.1026,0.0822 -0.2404,0.148 -0.413,0.1973 -0.0737,0.0204 -0.1148,0.0122 -0.123,-0.0247 -0.008,-0.0535 0.0431,-0.0864 0.1539,-0.0986 0.1973,-0.0247 0.3183,-0.1233 0.3637,-0.2959 0.0122,-0.0451 0.0184,-0.0882 0.0184,-0.1293 z m 1.4726,2.0273 c 0.2999,0 0.4499,0.1888 0.4499,0.567 0,0.1723 -0.0451,0.3571 -0.1355,0.5544 -0.1151,0.267 -0.2875,0.5094 -0.5176,0.7271 0.0533,0.1026 0.1499,0.1542 0.2897,0.1542 0.1108,0 0.2157,-0.0555 0.314,-0.1664 0.1234,-0.1275 0.2118,-0.2395 0.2651,-0.3359 0.0533,-0.0966 0.0924,-0.1675 0.1171,-0.2126 0.0246,-0.0451 0.0564,-0.11 0.0955,-0.1942 0.0391,-0.0841 0.0626,-0.1354 0.0708,-0.1539 0.008,-0.0184 0.0227,-0.0278 0.0431,-0.0278 0.0411,-0.0042 0.0618,0.0103 0.0618,0.0431 0,0.0125 -0.004,0.0267 -0.0124,0.0431 l -0.0369,0.0865 c -0.0247,0.0572 -0.0431,0.0983 -0.0556,0.123 -0.0121,0.0247 -0.034,0.0689 -0.0646,0.1327 -0.0309,0.0635 -0.0575,0.1139 -0.0802,0.1508 -0.0227,0.0371 -0.0533,0.0864 -0.0924,0.1479 -0.0391,0.0615 -0.074,0.1109 -0.1046,0.148 -0.0309,0.0369 -0.0689,0.078 -0.1142,0.123 -0.0451,0.0454 -0.0882,0.0802 -0.1293,0.1049 -0.1026,0.0615 -0.1993,0.0924 -0.2897,0.0924 -0.1684,0 -0.2999,-0.0533 -0.3943,-0.1601 -0.1891,0.1397 -0.3637,0.2094 -0.5238,0.2094 -0.3,0 -0.4499,-0.189 -0.4499,-0.5669 0,-0.1726 0.0453,-0.3574 0.1358,-0.5544 0.123,-0.2878 0.2968,-0.5321 0.5204,-0.7334 0.224,-0.2012 0.4365,-0.3019 0.6378,-0.3019 z m 0.0678,0.1911 c -0.1109,0 -0.2424,0.0737 -0.3943,0.2217 -0.152,0.1479 -0.2875,0.3492 -0.4065,0.6037 -0.144,0.296 -0.2157,0.5383 -0.2157,0.7274 0,0.1888 0.0717,0.2835 0.2157,0.2835 0.1026,0 0.2177,-0.0556 0.3449,-0.1664 -0.0657,-0.0947 -0.0986,-0.1953 -0.0986,-0.3022 0.008,-0.1766 0.0802,-0.2647 0.2157,-0.2647 0.0533,0 0.0975,0.0184 0.1324,0.0552 0.0349,0.0372 0.0524,0.0709 0.0524,0.1018 0,0.0309 -0.004,0.0626 -0.0122,0.0955 0.0698,-0.1026 0.15,-0.2486 0.2401,-0.4374 0.1029,-0.2097 0.1542,-0.415 0.1542,-0.6162 0,-0.2013 -0.0759,-0.3019 -0.2281,-0.3019 z m 2.4278,0.2894 c 0,-0.2341 -0.0966,-0.3512 -0.2897,-0.3512 -0.0164,0 -0.0329,0 -0.0493,0 -0.0737,0.0082 -0.1171,-0.0062 -0.1293,-0.0431 -0.0124,-0.0368 0.006,-0.0615 0.0556,-0.074 0.049,-0.0122 0.1026,-0.0144 0.1602,-0.0062 0.2134,0.0329 0.3594,0.1335 0.4373,0.3022 0.0536,0.1026 0.0803,0.2032 0.0803,0.3019 0,0.3532 -0.1296,0.7004 -0.3884,1.0411 -0.2588,0.3453 -0.5936,0.5176 -1.0043,0.5176 -0.1519,0 -0.2752,-0.0431 -0.3696,-0.1292 -0.0947,-0.0862 -0.1418,-0.2013 -0.1418,-0.345 0,-0.1726 0.0987,-0.4643 0.2957,-0.8751 -0.3368,0.6367 -0.5545,1.0024 -0.6531,1.0968 -0.0411,0.0371 -0.0615,0.0246 -0.0615,-0.0369 0,-0.0125 0.004,-0.0266 0.0122,-0.0431 0.1437,-0.189 0.4303,-0.7027 0.8594,-1.5406 0.4295,-0.8379 0.7302,-1.3864 0.9029,-1.6452 0.1397,-0.2013 0.2752,-0.3019 0.4067,-0.3019 0,0 0.002,0 0.006,0 h 0.0306 c 0.004,0 0.0402,0.0062 0.108,0.0184 0.0677,0.0125 0.1179,0.0145 0.1508,0.0062 -0.1355,0.1438 -0.3492,0.4315 -0.6409,0.8626 -0.7229,1.0724 -1.0843,1.8734 -1.0843,2.4032 0,0.2177 0.0698,0.341 0.2095,0.3697 0.0122,0.0042 0.0267,0.0062 0.0431,0.0062 0.1273,0 0.2866,-0.1139 0.4776,-0.3419 0.1908,-0.2281 0.3481,-0.4878 0.4711,-0.7795 0.0701,-0.1519 0.1049,-0.2897 0.1049,-0.413 z m 1.4052,-0.7948 c 0,0.1848 -0.1171,0.3594 -0.3512,0.5238 0.0819,0.004 0.1919,0.0063 0.3296,0.0063 0.1375,0 0.311,-0.0105 0.5205,-0.0309 0.008,0.0121 0.0124,0.045 0.0124,0.0986 0,0.0533 -0.0246,0.1324 -0.0739,0.2373 -0.0494,0.1046 -0.0936,0.195 -0.1324,0.271 -0.0391,0.0759 -0.076,0.1479 -0.1111,0.2157 -0.0349,0.0677 -0.0737,0.1508 -0.1171,0.2494 -0.0431,0.0987 -0.0791,0.1891 -0.1077,0.2713 -0.1026,0.3121 -0.0862,0.4683 0.0493,0.4683 0.1726,0 0.4272,-0.343 0.7639,-1.029 0.0289,-0.0536 0.0525,-0.074 0.0709,-0.0618 0.0187,0.0125 0.0278,0.0278 0.0278,0.0462 0,0.0184 -0.0267,0.0822 -0.08,0.1911 -0.0535,0.1088 -0.1111,0.2208 -0.1726,0.3359 -0.0615,0.1151 -0.1582,0.2486 -0.2897,0.4005 -0.1559,0.1888 -0.3059,0.2835 -0.4499,0.2835 -0.1601,0 -0.2709,-0.0967 -0.3325,-0.2897 -0.0124,-0.0369 -0.0187,-0.0924 -0.0187,-0.1664 0,-0.074 0.0238,-0.1726 0.0709,-0.2957 0.0473,-0.1233 0.1222,-0.2732 0.2251,-0.4498 0.1026,-0.1766 0.1601,-0.2804 0.1723,-0.3113 0.0125,-0.0309 0.0187,-0.0606 0.0187,-0.0893 0,-0.1272 -0.1644,-0.1953 -0.4929,-0.2032 l -0.074,0.197 c -0.2588,0.6778 -0.5074,1.1319 -0.7458,1.3618 -0.0408,0.0371 -0.0615,0.0246 -0.0615,-0.0369 0,-0.0125 0.004,-0.0266 0.0125,-0.0431 0.2299,-0.3041 0.4291,-0.6636 0.5975,-1.0786 0.1684,-0.4147 0.2855,-0.809 0.3512,-1.1829 0.0247,-0.1272 0.0822,-0.191 0.1726,-0.191 0.0905,0 0.1562,0.0575 0.1971,0.1726 0.0124,0.0369 0.0187,0.08 0.0187,0.1293 z"/>
        <path
                id="path18"
                style="fill:#868789;fill-rule:evenodd"
                d="m 142.5708,92.6254 c -0.0737,0.074 -0.1786,0.2413 -0.3141,0.5023 -0.1355,0.2608 -0.2169,0.4559 -0.2435,0.5854 -0.0266,0.1293 -0.04,0.2341 -0.04,0.3141 0,0.0802 0.0309,0.1202 0.0924,0.1202 0.078,0 0.1747,-0.0717 0.2897,-0.2157 0.1684,-0.2095 0.3348,-0.4825 0.4989,-0.8195 0.0165,-0.0369 0.0352,-0.0576 0.0556,-0.0616 0.0329,-0.0124 0.0493,0 0.0493,0.0369 0,0.0207 -0.006,0.0454 -0.0184,0.074 -0.3781,0.7642 -0.6965,1.146 -0.9553,1.146 -0.119,0 -0.2157,-0.0572 -0.2894,-0.1723 -0.0371,-0.0618 -0.0556,-0.1437 -0.0556,-0.2466 0,-0.1026 0.0205,-0.2279 0.0616,-0.3759 -0.3286,0.5301 -0.612,0.7948 -0.8502,0.7948 -0.0657,0 -0.1252,-0.0204 -0.1788,-0.0615 -0.1233,-0.0862 -0.1848,-0.2341 -0.1848,-0.4436 0,-0.4025 0.1746,-0.8113 0.5238,-1.2263 0.197,-0.2299 0.4394,-0.3798 0.7271,-0.4498 0.0779,-0.0204 0.1519,-0.0306 0.2217,-0.0306 0.189,0 0.3492,0.0654 0.4807,0.197 0.0411,0.0453 0.0533,0.0884 0.0369,0.1295 -0.0165,0.0411 -0.0513,0.0575 -0.1046,0.0493 -0.0454,-0.1479 -0.1438,-0.2219 -0.296,-0.2219 -0.1766,0 -0.3943,0.1397 -0.6531,0.4189 -0.1479,0.1644 -0.2854,0.3575 -0.4127,0.5794 -0.1602,0.2671 -0.2404,0.4805 -0.2404,0.6407 0,0.1601 0.0513,0.2403 0.1539,0.2403 0.2467,0 0.5692,-0.3778 0.9675,-1.1338 0.0782,-0.152 0.1437,-0.2557 0.1973,-0.311 0.0533,-0.0555 0.121,-0.0833 0.2032,-0.0833 0.0165,0 0.0587,0.0062 0.1265,0.0184 0.0677,0.0125 0.1179,0.0145 0.1508,0.0062 z m 2.1444,-0.3512 c -0.5054,0.8873 -0.758,1.4667 -0.758,1.7377 0,0.1068 0.0391,0.1601 0.1171,0.1601 0.2094,0 0.4909,-0.3551 0.8441,-1.0658 0.0247,-0.0575 0.0493,-0.0802 0.074,-0.068 0.0247,0.0124 0.0371,0.0289 0.0371,0.0493 0,0.0207 -0.008,0.0454 -0.0246,0.074 -0.2177,0.4396 -0.4017,0.7427 -0.5516,0.9091 -0.15,0.1661 -0.2999,0.2494 -0.4499,0.2494 -0.15,0 -0.2639,-0.0575 -0.3419,-0.1726 -0.0411,-0.0533 -0.0618,-0.1262 -0.0618,-0.2186 0,-0.0924 0.0207,-0.2044 0.0618,-0.3359 0.0411,-0.1315 0.154,-0.345 0.3388,-0.6409 0.0453,-0.074 0.0677,-0.1324 0.0677,-0.1755 0,-0.0433 -0.0348,-0.0649 -0.1046,-0.0649 -0.0697,0 -0.2032,0.0924 -0.4005,0.2775 -0.2957,0.271 -0.5814,0.6778 -0.8566,1.2201 -0.0247,0.0411 -0.0522,0.0666 -0.0831,0.0768 -0.0309,0.0105 -0.0915,0.0176 -0.1817,0.0215 -0.0904,0.0043 -0.1499,0.0145 -0.1789,0.0309 0.0658,-0.1315 0.1954,-0.4005 0.3884,-0.8073 0.345,-0.7188 0.5709,-1.1296 0.6778,-1.2322 0.0493,-0.0493 0.117,-0.074 0.2032,-0.074 0.0164,0 0.0587,0.0062 0.1264,0.0184 0.0678,0.0125 0.1182,0.0145 0.1508,0.0063 -0.1519,0.0822 -0.4005,0.4683 -0.7455,1.1585 0.1931,-0.2384 0.3688,-0.4283 0.527,-0.5701 0.1582,-0.1417 0.3481,-0.2732 0.57,-0.3943 0.2217,-0.1213 0.3841,-0.1819 0.4867,-0.1819 0.0247,0 0.0471,0.0042 0.0678,0.0124 z m 1.3371,0.6038 c 0.1437,-0.1723 0.2157,-0.3183 0.2157,-0.4374 0,-0.119 -0.0493,-0.1788 -0.148,-0.1788 -0.193,0 -0.4127,0.1768 -0.6593,0.53 -0.078,0.1109 -0.1539,0.2569 -0.2279,0.4374 -0.074,0.1809 -0.1111,0.3442 -0.1111,0.4899 0,0.1459 0.0297,0.2641 0.0895,0.3543 0.0596,0.0904 0.152,0.1358 0.2773,0.1358 0.1253,0 0.2412,-0.0298 0.3481,-0.0896 0.1068,-0.0595 0.2083,-0.1539 0.305,-0.2832 0.0966,-0.1295 0.1695,-0.2373 0.2188,-0.3237 0.0493,-0.0862 0.1171,-0.2157 0.2033,-0.3881 0.0289,-0.0575 0.0535,-0.081 0.0739,-0.0708 0.0204,0.0102 0.0309,0.0246 0.0309,0.0431 0,0.0184 -0.0277,0.0861 -0.0833,0.2032 -0.0553,0.1171 -0.1108,0.227 -0.1664,0.3297 -0.0553,0.1029 -0.1344,0.2177 -0.2373,0.3452 -0.1848,0.2299 -0.4373,0.345 -0.7577,0.345 -0.2301,0 -0.3954,-0.0564 -0.496,-0.1695 -0.1007,-0.1128 -0.1511,-0.2432 -0.1511,-0.3912 0,-0.1808 0.0442,-0.3779 0.1324,-0.5916 0.0884,-0.2137 0.1902,-0.3985 0.305,-0.5544 0.2384,-0.3246 0.5136,-0.487 0.8257,-0.487 0.1522,0 0.2619,0.036 0.3297,0.108 0.0677,0.0717 0.1017,0.155 0.1017,0.2494 0,0.1398 -0.0575,0.2588 -0.1726,0.3575 -0.0575,0.0533 -0.1057,0.0799 -0.1446,0.0799 -0.0391,0 -0.0731,-0.0142 -0.1017,-0.0431 z m 0.7395,0.4683 c -0.0575,0.1397 -0.0864,0.2959 -0.0864,0.4683 0,0.1151 0.0258,0.2066 0.0771,0.2744 0.0513,0.0677 0.1241,0.1015 0.2188,0.1015 0.3736,0 0.7127,-0.3513 1.0165,-1.0537 0.0289,-0.0657 0.0638,-0.0944 0.1049,-0.0862 0.0164,0.004 0.0247,0.0145 0.0247,0.0309 0,0.0165 -0.0462,0.1242 -0.1386,0.3235 -0.0925,0.1993 -0.186,0.3605 -0.2804,0.4836 -0.2095,0.2877 -0.4683,0.4314 -0.7764,0.4314 -0.1644,0 -0.3042,-0.0533 -0.419,-0.1602 -0.115,-0.1068 -0.1726,-0.2525 -0.1726,-0.4376 0,-0.1848 0.0442,-0.381 0.1324,-0.5885 0.0884,-0.2072 0.2086,-0.4005 0.3606,-0.5791 0.1519,-0.1786 0.3265,-0.3093 0.5238,-0.3912 0.0944,-0.0411 0.1848,-0.0618 0.271,-0.0618 0.0862,0 0.1664,0.0247 0.2404,0.074 0.0697,0.0575 0.1046,0.1213 0.1046,0.191 0,0.2467 -0.1477,0.4828 -0.4437,0.7087 -0.0904,0.0697 -0.2177,0.1324 -0.3818,0.1879 -0.1644,0.0556 -0.2897,0.0831 -0.3759,0.0831 z m 1.0353,-0.9859 c 0,-0.0822 -0.0329,-0.123 -0.0987,-0.123 -0.1151,0 -0.2897,0.1414 -0.5238,0.4249 -0.1398,0.1726 -0.2631,0.3657 -0.3697,0.5794 0.0698,0 0.1715,-0.0247 0.305,-0.074 0.1335,-0.0493 0.2495,-0.1151 0.3481,-0.1973 0.226,-0.193 0.3391,-0.3963 0.3391,-0.61 z m 0.5485,0.7458 c -0.004,0.0164 -0.0227,0.0729 -0.0556,0.1692 -0.0329,0.0967 -0.0607,0.1891 -0.0831,0.2775 -0.0226,0.0882 -0.034,0.1766 -0.034,0.2648 0,0.0884 0.0204,0.1706 0.0615,0.2466 0.0411,0.076 0.1069,0.114 0.1973,0.114 0.148,0 0.2917,-0.0995 0.4315,-0.2988 0.1394,-0.1993 0.2874,-0.453 0.4436,-0.7611 0.0329,-0.0575 0.0635,-0.0802 0.0924,-0.0678 0.0204,0.0165 0.0247,0.038 0.0122,0.0647 -0.0122,0.0266 -0.038,0.0842 -0.0768,0.1726 -0.0392,0.0882 -0.0681,0.15 -0.0865,0.1848 -0.0184,0.0349 -0.0513,0.0967 -0.0986,0.1848 -0.0471,0.0885 -0.0882,0.1542 -0.1231,0.1973 -0.0348,0.0431 -0.0822,0.0987 -0.1417,0.1664 -0.0595,0.0678 -0.1162,0.1179 -0.1695,0.1508 -0.1437,0.0905 -0.2795,0.1355 -0.4068,0.1355 -0.1273,0 -0.2259,-0.0275 -0.2956,-0.083 -0.07,-0.0556 -0.112,-0.1151 -0.1265,-0.1786 -0.0144,-0.0638 -0.0215,-0.1202 -0.0215,-0.1695 0,-0.0493 0.002,-0.1131 0.006,-0.1911 0.0122,-0.1315 0.038,-0.2588 0.0771,-0.3821 0.0389,-0.1233 0.0604,-0.193 0.0647,-0.2095 0.0944,-0.341 0.229,-0.7126 0.4036,-1.1151 0.1746,-0.4028 0.3223,-0.7056 0.4436,-0.9091 0.1211,-0.2032 0.2166,-0.3418 0.2866,-0.4158 0.1395,-0.148 0.2773,-0.222 0.4128,-0.222 0.0943,0 0.1581,0.0678 0.191,0.2035 0.004,0.0247 0.006,0.0553 0.006,0.0925 0,0.1394 -0.0493,0.3163 -0.1479,0.5297 -0.3532,0.7847 -0.7744,1.4009 -1.2631,1.8488 z m 0.0493,-0.1973 c 0.2095,-0.2137 0.4167,-0.4827 0.6222,-0.8073 0.2055,-0.3246 0.3563,-0.6007 0.453,-0.8286 0.0963,-0.2281 0.1448,-0.3832 0.1448,-0.4654 0,-0.0822 -0.0144,-0.123 -0.0431,-0.123 -0.0411,0 -0.1193,0.081 -0.2344,0.2432 -0.1148,0.1624 -0.2699,0.4541 -0.4652,0.875 -0.195,0.421 -0.3543,0.7898 -0.4773,1.1061 z m 2.0146,1.1092 c 0,0.1151 0.0411,0.1724 0.1233,0.1724 0.193,0 0.4663,-0.3615 0.8195,-1.0843 0.0289,-0.0575 0.0544,-0.0802 0.0771,-0.068 0.0226,0.0124 0.034,0.0289 0.034,0.0493 0,0.0207 -0.0238,0.0791 -0.0709,0.1757 -0.0473,0.0964 -0.0947,0.1891 -0.1417,0.2773 -0.0474,0.0884 -0.1162,0.2044 -0.2067,0.3481 -0.1887,0.2877 -0.39,0.4314 -0.6037,0.4314 -0.1398,0 -0.2506,-0.0575 -0.3328,-0.1726 -0.0369,-0.0533 -0.0553,-0.1262 -0.0553,-0.2186 0,-0.0924 0.0204,-0.2044 0.0615,-0.3359 0.0411,-0.1315 0.1539,-0.345 0.339,-0.6409 0.0451,-0.074 0.0678,-0.1324 0.0678,-0.1755 0,-0.0433 -0.0349,-0.0649 -0.1049,-0.0649 -0.0697,0 -0.2032,0.0924 -0.4005,0.2775 -0.2957,0.271 -0.5834,0.6778 -0.8626,1.2201 -0.0289,0.0615 -0.1049,0.0924 -0.2279,0.0924 -0.1111,0.0082 -0.1809,0.0204 -0.2098,0.0368 0.7807,-1.6225 1.3456,-2.7544 1.6946,-3.395 0.0782,-0.144 0.1471,-0.2447 0.2066,-0.3022 0.0595,-0.0575 0.1304,-0.0862 0.2126,-0.0862 0.0204,0 0.0635,0.0051 0.1293,0.0153 0.0657,0.0105 0.1151,0.0134 0.1479,0.0094 -0.1233,0.1273 -0.3441,0.4796 -0.6624,1.0567 -0.3184,0.5772 -0.6234,1.1637 -0.915,1.7592 0.193,-0.2423 0.3665,-0.4311 0.5207,-0.5669 0.1539,-0.1355 0.3418,-0.2639 0.5638,-0.385 0.2217,-0.1213 0.3841,-0.1819 0.4867,-0.1819 0.0247,0 0.0473,0.0042 0.0677,0.0124 -0.5051,0.8873 -0.7579,1.4687 -0.7579,1.7439 z m 2.8221,-1.3927 c -0.0737,0.074 -0.1785,0.2413 -0.314,0.5023 -0.1355,0.2608 -0.2169,0.4559 -0.2435,0.5854 -0.0267,0.1293 -0.04,0.2341 -0.04,0.3141 0,0.0802 0.0309,0.1202 0.0924,0.1202 0.078,0 0.1746,-0.0717 0.2897,-0.2157 0.1684,-0.2095 0.3348,-0.4825 0.4989,-0.8195 0.0164,-0.0369 0.0352,-0.0576 0.0556,-0.0616 0.0328,-0.0124 0.0493,0 0.0493,0.0369 0,0.0207 -0.006,0.0454 -0.0184,0.074 -0.3782,0.7642 -0.6965,1.146 -0.9553,1.146 -0.1191,0 -0.2157,-0.0572 -0.2894,-0.1723 -0.0372,-0.0618 -0.0556,-0.1437 -0.0556,-0.2466 0,-0.1026 0.0204,-0.2279 0.0615,-0.3759 -0.3285,0.5301 -0.612,0.7948 -0.8501,0.7948 -0.0658,0 -0.1253,-0.0204 -0.1789,-0.0615 -0.1233,-0.0862 -0.1848,-0.2341 -0.1848,-0.4436 0,-0.4025 0.1746,-0.8113 0.5239,-1.2263 0.197,-0.2299 0.4393,-0.3798 0.7271,-0.4498 0.0779,-0.0204 0.1519,-0.0306 0.2216,-0.0306 0.1891,0 0.3493,0.0654 0.4808,0.197 0.0411,0.0453 0.0533,0.0884 0.0368,0.1295 -0.0164,0.0411 -0.0513,0.0575 -0.1046,0.0493 -0.0453,-0.1479 -0.1437,-0.2219 -0.2959,-0.2219 -0.1766,0 -0.3943,0.1397 -0.6531,0.4189 -0.148,0.1644 -0.2855,0.3575 -0.4127,0.5794 -0.1602,0.2671 -0.2404,0.4805 -0.2404,0.6407 0,0.1601 0.0513,0.2403 0.1539,0.2403 0.2466,0 0.5692,-0.3778 0.9675,-1.1338 0.0782,-0.152 0.1437,-0.2557 0.1973,-0.311 0.0533,-0.0555 0.121,-0.0833 0.2032,-0.0833 0.0165,0 0.0587,0.0062 0.1264,0.0184 0.0678,0.0125 0.118,0.0145 0.1508,0.0062 z m 0.8136,1.5529 c 0.0533,0.0082 0.0901,0.0122 0.1108,0.0122 0.1641,0 0.3266,-0.0964 0.4867,-0.2895 0.0862,-0.1068 0.2404,-0.3758 0.4621,-0.8073 0.008,-0.0204 0.0226,-0.0309 0.0433,-0.0309 0.0369,-0.0039 0.0553,0.0105 0.0553,0.0434 0,0.0082 -0.009,0.0318 -0.0278,0.0709 -0.0184,0.0388 -0.0357,0.0779 -0.0521,0.117 -0.0165,0.0389 -0.0431,0.0956 -0.0802,0.1693 -0.0369,0.074 -0.0689,0.1335 -0.0956,0.1788 -0.0266,0.0451 -0.0606,0.1007 -0.1017,0.1664 -0.0409,0.0658 -0.082,0.1171 -0.1231,0.154 l -0.1295,0.1354 c -0.0697,0.0701 -0.1519,0.1194 -0.2463,0.148 -0.1522,0.0493 -0.2999,0.0533 -0.4437,0.0125 -0.0946,0.0408 -0.1788,0.0615 -0.2528,0.0615 -0.2917,0 -0.4683,-0.1151 -0.5298,-0.345 -0.0125,-0.0536 -0.0184,-0.1182 -0.0184,-0.1941 0,-0.076 0.0255,-0.1489 0.0768,-0.2189 0.0513,-0.0697 0.106,-0.1069 0.1633,-0.1108 0.2095,-0.3986 0.3883,-0.758 0.5363,-1.0783 0.1641,-0.3492 0.3552,-0.5239 0.5729,-0.5239 0.0575,0 0.1139,0.0134 0.1695,0.04 0.0555,0.0269 0.0759,0.0567 0.0615,0.0896 -0.0142,0.0326 -0.0439,0.0388 -0.0893,0.0184 -0.0451,-0.0207 -0.0842,-0.0309 -0.1171,-0.0309 -0.0329,0 -0.0615,0.0062 -0.0861,0.0184 -0.1398,0.0658 -0.2095,0.2075 -0.2095,0.4252 0,0.1151 0.0164,0.2095 0.0493,0.2835 0.0329,0.074 0.0697,0.1542 0.1108,0.2404 0.0944,0.2134 0.1418,0.388 0.1418,0.5238 0,0.1355 -0.0431,0.269 -0.1296,0.4006 -0.0861,0.1312 -0.1888,0.2381 -0.3078,0.3203 z m -0.2098,-0.0431 c 0.1809,-0.1398 0.2713,-0.3657 0.2713,-0.6778 0,-0.1275 -0.0145,-0.3022 -0.0431,-0.5238 -0.0289,-0.222 -0.0431,-0.3719 -0.0431,-0.4499 0,-0.0779 0.002,-0.1315 0.006,-0.1601 -0.3121,0.6244 -0.5052,1.0043 -0.5791,1.1398 0.0861,0 0.1292,0.0618 0.1292,0.1851 0,0.2423 0.0865,0.4045 0.2588,0.4867 z m -0.462,-0.1664 c 0,0.0246 0.002,0.0513 0.006,0.0799 0.0329,0.1111 0.1089,0.1664 0.2279,0.1664 0.0493,0 0.0904,-0.0082 0.1233,-0.0246 -0.1519,-0.0944 -0.2341,-0.2484 -0.2466,-0.4621 -0.0737,0.074 -0.1108,0.1542 -0.1108,0.2404 z m -42.9424,5.4266 c -0.0575,0.1398 -0.0864,0.296 -0.0864,0.4683 0,0.1151 0.0258,0.2067 0.0771,0.2744 0.0513,0.0678 0.1241,0.1015 0.2188,0.1015 0.3736,0 0.7126,-0.3512 1.0165,-1.0536 0.0289,-0.0658 0.0638,-0.0944 0.1049,-0.0862 0.0164,0.0039 0.0247,0.0144 0.0247,0.0309 0,0.0164 -0.0462,0.1241 -0.1386,0.3234 -0.0925,0.1993 -0.186,0.3606 -0.2804,0.4836 -0.2095,0.2877 -0.4683,0.4314 -0.7764,0.4314 -0.1644,0 -0.3042,-0.0533 -0.419,-0.1601 -0.1151,-0.1069 -0.1726,-0.2526 -0.1726,-0.4377 0,-0.1848 0.0442,-0.381 0.1324,-0.5885 0.0884,-0.2072 0.2086,-0.4005 0.3606,-0.5791 0.1519,-0.1786 0.3265,-0.3092 0.5238,-0.3912 0.0944,-0.0411 0.1848,-0.0618 0.271,-0.0618 0.0862,0 0.1664,0.0247 0.2404,0.074 0.0697,0.0576 0.1046,0.1213 0.1046,0.1911 0,0.2466 -0.1477,0.4827 -0.4437,0.7086 -0.0904,0.0698 -0.2177,0.1324 -0.3818,0.188 -0.1644,0.0555 -0.2897,0.083 -0.3759,0.083 z m 1.0353,-0.9859 c 0,-0.0822 -0.0329,-0.123 -0.0987,-0.123 -0.1151,0 -0.2897,0.1415 -0.5238,0.4249 -0.1398,0.1727 -0.2631,0.3657 -0.3697,0.5794 0.0698,0 0.1715,-0.0246 0.305,-0.0739 0.1335,-0.0494 0.2495,-0.1151 0.3481,-0.1973 0.2259,-0.1931 0.3391,-0.3963 0.3391,-0.6101 z m 4.1099,-0.2709 c 0,-0.2835 -0.1335,-0.4252 -0.4005,-0.4252 -0.0369,0 -0.0822,0.0031 -0.1355,0.009 -0.0536,0.0063 -0.0905,-0.0071 -0.1109,-0.0399 -0.0328,-0.0451 0.0204,-0.076 0.1602,-0.0925 0.0493,-0.0082 0.0986,-0.0121 0.1477,-0.0121 0.2384,0 0.4005,0.1026 0.487,0.3081 0.0368,0.0862 0.0552,0.1961 0.0552,0.3297 0,0.1335 -0.0572,0.3007 -0.1723,0.502 -0.2013,0.3656 -0.5176,0.6389 -0.949,0.8195 -0.1438,0.0618 -0.2926,0.0924 -0.4468,0.0924 -0.1539,0 -0.3132,-0.0389 -0.4776,-0.1171 -0.3039,-0.1437 -0.5154,-0.3841 -0.6347,-0.7208 -0.0451,-0.1316 -0.0677,-0.2968 -0.0677,-0.4961 0,-0.1993 0.0555,-0.4507 0.1664,-0.7549 0.2548,-0.5955 0.6737,-1.1029 1.2571,-1.5219 0.6245,-0.4518 1.2076,-0.6778 1.7498,-0.6778 0.4601,0 0.7682,0.1849 0.9244,0.5545 0.0698,0.1602 0.1049,0.3532 0.1049,0.5794 0,0.0737 -0.004,0.1497 -0.0125,0.2279 -0.0411,0.3575 -0.1479,0.7662 -0.3203,1.2263 -0.0289,0.0779 -0.0431,0.1304 -0.0431,0.157 0,0.0267 0.006,0.04 0.0185,0.04 0.0204,0.0042 0.0552,-0.0389 0.1046,-0.1293 0.3041,-0.5547 0.6389,-1.0516 1.0046,-1.4913 0.119,-0.1437 0.2627,-0.2608 0.4311,-0.3512 0.1848,-0.0986 0.3504,-0.148 0.4961,-0.148 0.146,0 0.2608,0.0536 0.3452,0.1605 0.0842,0.1066 0.1262,0.2483 0.1262,0.4252 0,0.4147 -0.1622,1.1069 -0.4867,2.0763 -0.0658,0.1931 -0.1069,0.3164 -0.1233,0.37 0.3327,-0.5219 0.7508,-1.0959 1.254,-1.7224 0.5031,-0.6264 0.9499,-0.9972 1.3402,-1.1123 0.0698,-0.0204 0.1315,-0.0309 0.1848,-0.0309 0.1562,0 0.2569,0.0783 0.3019,0.2342 0.0165,0.0535 0.0247,0.1151 0.0247,0.1851 0,0.2094 -0.0822,0.4785 -0.2463,0.807 -0.3371,0.6738 -0.567,1.2098 -0.6903,1.6084 -0.1684,0.5258 -0.2525,0.8852 -0.2525,1.0783 0,0.193 0.0184,0.3532 0.0552,0.4807 0.074,0.2546 0.269,0.3819 0.5854,0.3819 0.0164,0 0.0504,-9e-4 0.1017,-0.003 0.0514,-0.002 0.0803,0.007 0.0862,0.0278 0.006,0.0207 -0.008,0.0391 -0.0431,0.0556 -0.0348,0.0164 -0.0697,0.0246 -0.1046,0.0246 -0.0351,0 -0.0626,-0.002 -0.0833,-0.006 -0.6491,-0.0658 -0.9734,-0.3986 -0.9734,-0.9981 0,-0.2177 0.0439,-0.4654 0.1324,-0.7427 0.0884,-0.2772 0.1632,-0.4898 0.2247,-0.6378 0.0987,-0.2381 0.3062,-0.7044 0.6225,-1.3986 0.1109,-0.2588 0.1664,-0.4561 0.1664,-0.5916 0,-0.1355 -0.0575,-0.2032 -0.1726,-0.2032 -0.1602,0 -0.4088,0.1641 -0.7455,0.4929 -0.1726,0.1724 -0.3594,0.383 -0.5607,0.6316 -0.2013,0.2483 -0.4992,0.684 -0.8935,1.3062 -0.3943,0.6225 -0.6452,1.061 -0.7517,1.3156 -0.0947,0.2219 -0.22,0.3328 -0.3759,0.3328 -0.1111,0 -0.1766,-0.0392 -0.1973,-0.1171 -0.0122,-0.0329 -0.0122,-0.0584 0,-0.0771 0.0125,-0.0184 0.0513,-0.0873 0.1171,-0.2064 0.0657,-0.119 0.1335,-0.2443 0.2032,-0.3759 0.07,-0.1315 0.1531,-0.3101 0.2497,-0.536 0.0964,-0.2259 0.186,-0.4561 0.2679,-0.6902 0.1973,-0.5791 0.3308,-1.1747 0.4006,-1.787 0.008,-0.0697 0.0124,-0.157 0.0124,-0.2619 0,-0.1046 -0.0277,-0.1879 -0.0833,-0.2495 -0.0553,-0.0615 -0.114,-0.0924 -0.1755,-0.0924 -0.2012,0 -0.4232,0.152 -0.6655,0.4561 -0.3286,0.4065 -0.614,0.8062 -0.8564,1.1985 -0.2424,0.3923 -0.4283,0.722 -0.5579,0.989 -0.1292,0.2668 -0.2792,0.5882 -0.4498,0.9641 -0.1704,0.3761 -0.2608,0.5763 -0.271,0.6009 -0.0102,0.0247 -0.0247,0.0556 -0.0431,0.0924 -0.0184,0.0369 -0.034,0.072 -0.0462,0.1049 -0.0536,0.1191 -0.1684,0.1786 -0.3453,0.1786 -0.1026,0 -0.1581,-0.0329 -0.1661,-0.0986 0,-0.0122 0.002,-0.0267 0.006,-0.0431 0.2713,-0.419 0.5712,-1.0537 0.8997,-1.9041 0.419,-1.0763 0.6284,-1.8609 0.6284,-2.3538 0,-0.5874 -0.2423,-0.8811 -0.727,-0.8811 -0.3121,0 -0.7056,0.1497 -1.1801,0.4496 -0.4742,0.2999 -0.8677,0.684 -1.1798,1.1523 -0.1233,0.1851 -0.2157,0.3637 -0.2775,0.5363 -0.1066,0.3161 -0.1602,0.5667 -0.1602,0.7518 0,0.5298 0.1766,0.879 0.5301,1.0474 0.123,0.0615 0.2483,0.0924 0.3759,0.0924 0.4436,0 0.807,-0.2404 1.0905,-0.7209 0.1437,-0.2423 0.2157,-0.4541 0.2157,-0.6346 z m 6.7289,-0.1911 c -0.0576,0.0493 -0.1211,0.074 -0.1911,0.074 -0.0697,0 -0.1253,-0.0247 -0.1664,-0.074 -0.0411,-0.0493 -0.0575,-0.1089 -0.0493,-0.1786 0.0125,-0.07 0.0474,-0.1295 0.1049,-0.1789 0.0575,-0.0493 0.1213,-0.0739 0.1911,-0.0739 0.0697,0 0.1264,0.0246 0.1695,0.0739 0.0431,0.0494 0.0584,0.1089 0.0462,0.1789 -0.0125,0.0697 -0.0474,0.1293 -0.1049,0.1786 z m -0.6038,2.2615 c 0.078,0 0.1602,-0.0391 0.2463,-0.1171 0.1523,-0.1519 0.3453,-0.4623 0.5794,-0.9306 0.0287,-0.0615 0.0576,-0.0799 0.0862,-0.0553 0.008,0.0082 0.0125,0.0216 0.0125,0.04 0,0.0184 -0.0165,0.0638 -0.0493,0.1355 -0.0329,0.072 -0.0627,0.1366 -0.0896,0.1942 -0.0267,0.0575 -0.078,0.151 -0.1539,0.2803 -0.076,0.1295 -0.1449,0.229 -0.2064,0.2988 -0.1684,0.193 -0.3277,0.2897 -0.4776,0.2897 -0.15,0 -0.2577,-0.0451 -0.3235,-0.1355 -0.0657,-0.0904 -0.0986,-0.1911 -0.0986,-0.3019 0,-0.1111 0.0266,-0.2322 0.0802,-0.3637 l 0.3943,-1.0043 c 0.008,-0.0247 0.0122,-0.0576 0.0122,-0.0987 0,-0.0411 -0.0247,-0.0944 -0.074,-0.1601 l 0.339,-0.0063 c 0.0944,0 0.15,0.0176 0.1664,0.0525 0.0165,0.0349 0.004,0.0893 -0.0368,0.1633 l -0.493,1.1522 c -0.07,0.152 -0.1048,0.2815 -0.1048,0.3881 0,0.1193 0.0637,0.1789 0.191,0.1789 z m 1.9656,-1.2819 c 0.1437,-0.1723 0.2157,-0.3183 0.2157,-0.4373 0,-0.1191 -0.0494,-0.1789 -0.148,-0.1789 -0.193,0 -0.4127,0.1769 -0.6593,0.5301 -0.078,0.1108 -0.154,0.2568 -0.2279,0.4374 -0.074,0.1808 -0.1112,0.3441 -0.1112,0.4898 0,0.146 0.0298,0.2642 0.0896,0.3543 0.0595,0.0904 0.1519,0.1358 0.2772,0.1358 0.1253,0 0.2413,-0.0298 0.3481,-0.0896 0.1069,-0.0595 0.2084,-0.1539 0.305,-0.2832 0.0967,-0.1295 0.1696,-0.2372 0.2189,-0.3237 0.0493,-0.0861 0.117,-0.2157 0.2032,-0.388 0.0289,-0.0576 0.0536,-0.0811 0.074,-0.0709 0.0204,0.0102 0.0309,0.0247 0.0309,0.0431 0,0.0184 -0.0278,0.0862 -0.0833,0.2032 -0.0553,0.1171 -0.1109,0.2271 -0.1664,0.3297 -0.0553,0.1029 -0.1344,0.2177 -0.2373,0.3453 -0.1848,0.2298 -0.4374,0.3449 -0.7577,0.3449 -0.2302,0 -0.3954,-0.0564 -0.4961,-0.1695 -0.1006,-0.1128 -0.151,-0.2432 -0.151,-0.3912 0,-0.1808 0.0442,-0.3778 0.1323,-0.5915 0.0885,-0.2138 0.1902,-0.3986 0.305,-0.5545 0.2384,-0.3246 0.5137,-0.487 0.8258,-0.487 0.1522,0 0.2619,0.036 0.3296,0.108 0.0678,0.0717 0.1018,0.1551 0.1018,0.2495 0,0.1397 -0.0575,0.2588 -0.1726,0.3574 -0.0576,0.0533 -0.1058,0.0799 -0.1446,0.0799 -0.0391,0 -0.0731,-0.0141 -0.1017,-0.0431 z m 1.3002,-1.0536 c 0,0.1848 -0.1171,0.3594 -0.3512,0.5239 0.0819,0.0039 0.1919,0.0062 0.3297,0.0062 0.1374,0 0.3109,-0.0105 0.5204,-0.0309 0.008,0.0122 0.0125,0.0451 0.0125,0.0986 0,0.0533 -0.0247,0.1324 -0.074,0.2373 -0.0493,0.1046 -0.0936,0.195 -0.1324,0.271 -0.0391,0.076 -0.076,0.148 -0.1111,0.2157 -0.0349,0.0678 -0.0737,0.1508 -0.1171,0.2495 -0.0431,0.0986 -0.0791,0.189 -0.1077,0.2712 -0.1026,0.3121 -0.0862,0.4683 0.0493,0.4683 0.1727,0 0.4272,-0.343 0.764,-1.029 0.0289,-0.0535 0.0524,-0.0739 0.0708,-0.0618 0.0187,0.0125 0.0278,0.0278 0.0278,0.0462 0,0.0185 -0.0266,0.0823 -0.0799,0.1911 -0.0536,0.1089 -0.1111,0.2208 -0.1727,0.3359 -0.0615,0.1151 -0.1581,0.2486 -0.2897,0.4005 -0.1559,0.1888 -0.3058,0.2835 -0.4498,0.2835 -0.1602,0 -0.271,-0.0967 -0.3325,-0.2897 -0.0125,-0.0368 -0.0187,-0.0924 -0.0187,-0.1664 0,-0.074 0.0238,-0.1726 0.0708,-0.2956 0.0474,-0.1233 0.1222,-0.2733 0.2251,-0.4499 0.1026,-0.1766 0.1602,-0.2803 0.1724,-0.3112 0.0124,-0.0309 0.0187,-0.0607 0.0187,-0.0893 0,-0.1273 -0.1644,-0.1953 -0.493,-0.2033 l -0.074,0.197 c -0.2588,0.6778 -0.5074,1.1319 -0.7458,1.3618 -0.0408,0.0371 -0.0615,0.0247 -0.0615,-0.0369 0,-0.0124 0.004,-0.0266 0.0125,-0.043 0.2299,-0.3042 0.4292,-0.6636 0.5975,-1.0786 0.1684,-0.4147 0.2855,-0.809 0.3513,-1.1829 0.0246,-0.1273 0.0822,-0.1911 0.1726,-0.1911 0.0904,0 0.1562,0.0576 0.197,0.1727 0.0125,0.0368 0.0187,0.0799 0.0187,0.1292 z m 1.8916,0.3144 c 0.2999,0 0.4498,0.1888 0.4498,0.5669 0,0.1723 -0.0451,0.3572 -0.1355,0.5545 -0.1151,0.267 -0.2874,0.5093 -0.5176,0.727 0.0533,0.1027 0.15,0.1543 0.2897,0.1543 0.1109,0 0.2157,-0.0556 0.3141,-0.1664 0.1233,-0.1276 0.2117,-0.2396 0.265,-0.3359 0.0533,-0.0967 0.0924,-0.1676 0.1171,-0.2126 0.0247,-0.0451 0.0564,-0.11 0.0955,-0.1942 0.0392,-0.0842 0.0627,-0.1355 0.0709,-0.1539 0.008,-0.0185 0.0227,-0.0278 0.0431,-0.0278 0.0411,-0.0043 0.0618,0.0102 0.0618,0.0431 0,0.0124 -0.004,0.0266 -0.0125,0.0431 l -0.0368,0.0864 c -0.0247,0.0573 -0.0431,0.0984 -0.0556,0.123 -0.0122,0.0247 -0.034,0.0689 -0.0646,0.1327 -0.0309,0.0635 -0.0576,0.1139 -0.0802,0.1508 -0.0227,0.0371 -0.0533,0.0865 -0.0925,0.148 -0.0391,0.0615 -0.0739,0.1108 -0.1046,0.1479 -0.0309,0.0369 -0.0688,0.078 -0.1142,0.1231 -0.0451,0.0453 -0.0882,0.0802 -0.1293,0.1048 -0.1026,0.0616 -0.1992,0.0924 -0.2897,0.0924 -0.1683,0 -0.2999,-0.0532 -0.3943,-0.1601 -0.189,0.1397 -0.3636,0.2095 -0.5238,0.2095 -0.2999,0 -0.4499,-0.1891 -0.4499,-0.567 0,-0.1726 0.0454,-0.3574 0.1358,-0.5544 0.123,-0.2877 0.2968,-0.5321 0.5205,-0.7333 0.2239,-0.2013 0.4365,-0.3019 0.6378,-0.3019 z m 0.0677,0.191 c -0.1108,0 -0.2424,0.0737 -0.3943,0.2217 -0.1519,0.148 -0.2874,0.3492 -0.4065,0.6038 -0.144,0.2959 -0.2157,0.5383 -0.2157,0.7273 0,0.1888 0.0717,0.2835 0.2157,0.2835 0.1026,0 0.2177,-0.0555 0.345,-0.1664 -0.0658,-0.0947 -0.0986,-0.1953 -0.0986,-0.3022 0.008,-0.1766 0.0802,-0.2647 0.2157,-0.2647 0.0533,0 0.0975,0.0184 0.1323,0.0553 0.0349,0.0371 0.0525,0.0708 0.0525,0.1017 0,0.0309 -0.004,0.0627 -0.0122,0.0956 0.0697,-0.1027 0.15,-0.2486 0.2401,-0.4374 0.1029,-0.2098 0.1542,-0.415 0.1542,-0.6163 0,-0.2012 -0.076,-0.3019 -0.2282,-0.3019 z"/>
        <path
                id="path20"
                style="fill:#868789;fill-rule:evenodd"
                d="m 129.6799,98.6683 c 0,0.1809 -0.047,0.3802 -0.1417,0.5979 -0.0944,0.2177 -0.2248,0.4272 -0.3912,0.6284 -0.1664,0.2013 -0.3688,0.339 -0.6069,0.413 -0.0904,0.0247 -0.1941,0.0369 -0.3112,0.0369 -0.1171,0 -0.2455,-0.0369 -0.385,-0.1109 l -0.5856,1.4604 c -0.0615,0.1313 -0.1191,0.2177 -0.1723,0.2589 -0.0536,0.0411 -0.1049,0.0615 -0.1543,0.0615 -0.0493,0 -0.079,0 -0.0892,0 -0.0102,0 -0.0474,-0.006 -0.1109,-0.0185 -0.0638,-0.0124 -0.1119,-0.0164 -0.1448,-0.0124 0.0904,-0.0862 0.3194,-0.4961 0.6871,-1.2291 0.3676,-0.7334 0.576,-1.2274 0.6253,-1.482 -0.0451,0.0655 -0.0881,0.1006 -0.1292,0.1046 -0.0247,0 -0.0247,-0.0235 0,-0.0709 0.0246,-0.0473 0.0657,-0.1386 0.123,-0.2741 0.074,-0.1766 0.1111,-0.3398 0.1111,-0.4898 0,-0.1499 -0.0289,-0.2373 -0.0865,-0.2619 0.2467,-0.0411 0.3904,-0.0607 0.4315,-0.0587 0.0411,0.0023 0.0669,0.0196 0.0771,0.0524 0.0102,0.0329 0.0153,0.0698 0.0153,0.1109 0,0.2506 -0.0576,0.5301 -0.1726,0.8382 l 0.1233,-0.1973 c 0.1479,-0.2381 0.2556,-0.3923 0.3234,-0.4621 0.068,-0.07 0.1409,-0.1417 0.2188,-0.2157 0.1191,-0.1151 0.2342,-0.1726 0.345,-0.1726 0.0329,0 0.0638,0.0043 0.0927,0.0125 0.2052,0.0533 0.3078,0.2134 0.3078,0.4804 z m -0.2956,-0.0615 c 0,-0.0657 -0.0133,-0.1264 -0.04,-0.1817 -0.0266,-0.0555 -0.0689,-0.0833 -0.1264,-0.0833 -0.1437,0 -0.3113,0.1335 -0.5023,0.4005 -0.1908,0.2671 -0.4652,0.7334 -0.8226,1.3989 0.0536,0.0533 0.1275,0.08 0.2219,0.08 0.0944,0 0.2279,-0.0718 0.4006,-0.2158 0.2752,-0.2298 0.5051,-0.5153 0.6902,-0.8563 0.1191,-0.222 0.1786,-0.4025 0.1786,-0.5423 z m 1.3617,-0.6593 c -0.0575,0.0493 -0.121,0.074 -0.191,0.074 -0.0697,0 -0.1253,-0.0247 -0.1664,-0.074 -0.0411,-0.0493 -0.0575,-0.1089 -0.0493,-0.1786 0.0124,-0.07 0.0473,-0.1295 0.1049,-0.1789 0.0575,-0.0493 0.1213,-0.0739 0.191,-0.0739 0.0697,0 0.1264,0.0246 0.1695,0.0739 0.0431,0.0494 0.0584,0.1089 0.0462,0.1789 -0.0124,0.0697 -0.0473,0.1293 -0.1049,0.1786 z m -0.6037,2.2615 c 0.0779,0 0.1601,-0.0391 0.2463,-0.1171 0.1522,-0.1519 0.3453,-0.4623 0.5794,-0.9306 0.0286,-0.0615 0.0575,-0.0799 0.0862,-0.0553 0.008,0.0082 0.0124,0.0216 0.0124,0.04 0,0.0184 -0.0164,0.0638 -0.0493,0.1355 -0.0329,0.072 -0.0626,0.1366 -0.0896,0.1942 -0.0266,0.0575 -0.0779,0.151 -0.1539,0.2803 -0.0759,0.1295 -0.1448,0.229 -0.2063,0.2988 -0.1684,0.193 -0.3277,0.2897 -0.4777,0.2897 -0.1499,0 -0.2576,-0.0451 -0.3234,-0.1355 -0.0658,-0.0904 -0.0987,-0.1911 -0.0987,-0.3019 0,-0.1111 0.0267,-0.2322 0.0803,-0.3637 l 0.3943,-1.0043 c 0.008,-0.0247 0.0122,-0.0576 0.0122,-0.0987 0,-0.0411 -0.0247,-0.0944 -0.074,-0.1601 l 0.339,-0.0063 c 0.0944,0 0.1499,0.0176 0.1664,0.0525 0.0164,0.0349 0.004,0.0893 -0.0369,0.1633 l -0.4929,1.1522 c -0.07,0.152 -0.1049,0.2815 -0.1049,0.3881 0,0.1193 0.0638,0.1789 0.1911,0.1789 z m 0.4065,2.0826 c -0.3861,0 -0.5792,-0.1582 -0.5792,-0.4745 0,-0.2628 0.1786,-0.4989 0.5361,-0.7084 0.3038,-0.1769 0.6922,-0.3433 1.1644,-0.4992 0.218,-0.07 0.3759,-0.1253 0.4746,-0.1664 0.1068,-0.3124 0.1601,-0.6531 0.1601,-1.023 0,-0.074 -0.004,-0.1293 -0.0122,-0.1664 -0.1151,0.2341 -0.2732,0.4745 -0.4745,0.7211 -0.2381,0.2957 -0.4745,0.4108 -0.7087,0.345 -0.2134,-0.0904 -0.3203,-0.267 -0.3203,-0.5298 0,-0.3535 0.1766,-0.7415 0.5298,-1.1647 0.1934,-0.2299 0.4193,-0.3759 0.6781,-0.4374 0.0697,-0.0207 0.1394,-0.0309 0.2095,-0.0309 0.1848,0 0.3653,0.0615 0.5422,0.1848 0.0655,0.0536 0.0984,0.0986 0.0984,0.1355 0,0.0371 -0.0122,0.0731 -0.0369,0.108 -0.0246,0.0349 -0.0504,0.0388 -0.0771,0.0122 -0.0266,-0.0267 -0.0442,-0.0522 -0.0524,-0.0768 -0.0533,-0.1523 -0.1395,-0.2282 -0.2588,-0.2282 -0.2177,0 -0.4621,0.1519 -0.733,0.4561 -0.1523,0.1726 -0.2835,0.3574 -0.3946,0.5544 -0.1355,0.2466 -0.2033,0.4366 -0.2033,0.5701 0,0.1335 0.0411,0.2228 0.1233,0.2681 0.0287,0.0122 0.0576,0.0185 0.0862,0.0185 0.0944,0 0.2126,-0.0647 0.3543,-0.1942 0.1418,-0.1293 0.2733,-0.2937 0.3943,-0.493 0.1214,-0.1992 0.1985,-0.3543 0.2313,-0.4651 0.0326,-0.1109 0.0729,-0.1809 0.1199,-0.2095 0.0474,-0.0289 0.0998,-0.0454 0.1574,-0.0493 0.0575,-0.0043 0.0963,-0.0145 0.117,-0.0309 0.0329,0.1848 0.0494,0.4016 0.0494,0.6502 0,0.2484 -0.0434,0.531 -0.1296,0.8473 0.1891,-0.1358 0.3235,-0.2568 0.4037,-0.3637 0.0802,-0.1068 0.1437,-0.2032 0.191,-0.2897 0.0474,-0.0861 0.0893,-0.1715 0.1265,-0.2557 0.0368,-0.0841 0.0615,-0.1386 0.0737,-0.1632 0.0124,-0.0247 0.0328,-0.04 0.0617,-0.0462 0.0287,-0.0063 0.0431,0.007 0.0431,0.0399 0,0.0207 -0.006,0.0454 -0.0184,0.074 -0.1808,0.3739 -0.3319,0.644 -0.453,0.8104 -0.1213,0.1664 -0.2865,0.2988 -0.496,0.3975 -0.0987,0.2792 -0.2413,0.5567 -0.4283,0.8316 -0.1868,0.2753 -0.4221,0.5176 -0.7056,0.7274 -0.2835,0.2095 -0.5646,0.3141 -0.8441,0.3141 z m -0.4499,-0.3575 c 0,0.1562 0.1006,0.2342 0.3019,0.2342 0.1193,0 0.2537,-0.0349 0.4036,-0.1046 0.15,-0.0697 0.2744,-0.1417 0.3728,-0.2157 0.1687,-0.1355 0.3535,-0.3368 0.5547,-0.6038 0.152,-0.2137 0.269,-0.4212 0.3512,-0.6225 l -0.2157,0.074 c -0.6409,0.2219 -1.0927,0.4189 -1.3555,0.5916 -0.193,0.1273 -0.3206,0.2897 -0.3821,0.4867 -0.0204,0.0618 -0.0309,0.1151 -0.0309,0.1601 z m 6.205,-3.6107 c -0.5011,0.8915 -0.7517,1.4666 -0.7517,1.7254 0,0.1148 0.0391,0.1724 0.1171,0.1724 0.0986,0 0.2114,-0.074 0.339,-0.2217 0.193,-0.2341 0.3614,-0.5156 0.5051,-0.8442 0.0247,-0.0575 0.0493,-0.0802 0.074,-0.068 0.0247,0.0125 0.0371,0.0289 0.0371,0.0493 0,0.0207 -0.0207,0.072 -0.0618,0.1542 -0.0411,0.0822 -0.0739,0.148 -0.0986,0.197 -0.0247,0.0494 -0.0791,0.144 -0.1633,0.2835 -0.0842,0.1398 -0.1559,0.2424 -0.2157,0.3081 -0.0595,0.0658 -0.1355,0.1304 -0.2279,0.1942 -0.0924,0.0638 -0.197,0.0955 -0.3144,0.0955 -0.117,0 -0.2165,-0.0575 -0.2987,-0.1726 -0.0369,-0.0533 -0.0553,-0.1261 -0.0553,-0.2185 0,-0.0925 0.0204,-0.2044 0.0615,-0.336 0.0411,-0.1315 0.1539,-0.3449 0.339,-0.6409 0.0451,-0.074 0.0678,-0.1323 0.0678,-0.1754 0,-0.0434 -0.034,-0.0649 -0.1018,-0.0649 -0.0677,0 -0.1899,0.0822 -0.3665,0.2466 -0.1769,0.1644 -0.3626,0.386 -0.5579,0.6655 -0.195,0.2793 -0.3109,0.5032 -0.3481,0.6716 -0.0697,0 -0.121,-0.0287 -0.1539,-0.0862 -0.0329,-0.0575 -0.0493,-0.1069 -0.0493,-0.148 0,-0.1683 0.1128,-0.4889 0.3387,-0.9612 0.074,-0.1562 0.1131,-0.2619 0.1171,-0.3175 0.004,-0.0553 -0.003,-0.0842 -0.0215,-0.0862 -0.0185,-0.0019 -0.0443,0.0052 -0.0769,0.0216 -0.0739,0.0371 -0.187,0.1273 -0.339,0.2713 -0.2877,0.2627 -0.5709,0.6633 -0.8504,1.2013 -0.0204,0.0453 -0.0462,0.0731 -0.0771,0.0833 -0.0306,0.0102 -0.0913,0.0176 -0.1817,0.0216 -0.0904,0.004 -0.1499,0.0144 -0.1786,0.0309 0.074,-0.144 0.2033,-0.413 0.3881,-0.8073 0.3328,-0.7067 0.5547,-1.1132 0.6656,-1.2201 0.0493,-0.0493 0.117,-0.074 0.2032,-0.074 0.0165,0 0.0587,0.0063 0.1264,0.0185 0.0678,0.0124 0.1182,0.0144 0.1508,0.0062 -0.1519,0.0822 -0.4005,0.4683 -0.7455,1.1585 0.1931,-0.2384 0.3317,-0.3946 0.4159,-0.4683 0.0844,-0.0739 0.1471,-0.1295 0.1879,-0.1663 0.0411,-0.0372 0.0731,-0.0658 0.0955,-0.0865 0.0227,-0.0204 0.0556,-0.0502 0.0987,-0.0893 0.0431,-0.0388 0.076,-0.0677 0.0986,-0.0862 0.0227,-0.0184 0.0545,-0.0442 0.0956,-0.0771 0.0411,-0.0329 0.0728,-0.0544 0.0955,-0.0646 0.0227,-0.0102 0.0533,-0.0278 0.0924,-0.0524 0.0391,-0.0247 0.0677,-0.0369 0.0862,-0.0369 0.0187,0 0.0442,-0.0051 0.0771,-0.0156 0.0329,-0.0102 0.0555,-0.0071 0.0677,0.0094 0.0822,0.0329 0.1233,0.0842 0.1233,0.1539 0,0.0618 -0.0697,0.22 -0.2095,0.4745 -0.1397,0.2548 -0.2301,0.4232 -0.2712,0.5054 0.1808,-0.2259 0.3535,-0.4118 0.5176,-0.5578 0.1644,-0.1457 0.3586,-0.2804 0.5825,-0.4034 0.2237,-0.1233 0.3869,-0.1851 0.4898,-0.1851 0.0247,0 0.0451,0.0042 0.0615,0.0125 z m 0.4808,1.072 c -0.0576,0.1398 -0.0865,0.296 -0.0865,0.4683 0,0.1151 0.0258,0.2067 0.0771,0.2744 0.0513,0.0678 0.1242,0.1015 0.2189,0.1015 0.3736,0 0.7126,-0.3512 1.0165,-1.0536 0.0289,-0.0658 0.0638,-0.0944 0.1049,-0.0862 0.0164,0.0039 0.0246,0.0144 0.0246,0.0309 0,0.0164 -0.0462,0.1241 -0.1386,0.3234 -0.0924,0.1993 -0.1859,0.3606 -0.2803,0.4836 -0.2095,0.2877 -0.4683,0.4314 -0.7764,0.4314 -0.1645,0 -0.3042,-0.0533 -0.419,-0.1601 -0.1151,-0.1069 -0.1726,-0.2526 -0.1726,-0.4377 0,-0.1848 0.0442,-0.381 0.1323,-0.5885 0.0885,-0.2072 0.2087,-0.4005 0.3606,-0.5791 0.1519,-0.1786 0.3266,-0.3092 0.5238,-0.3912 0.0944,-0.0411 0.1849,-0.0618 0.271,-0.0618 0.0862,0 0.1664,0.0247 0.2404,0.074 0.0697,0.0576 0.1046,0.1213 0.1046,0.1911 0,0.2466 -0.1477,0.4827 -0.4436,0.7086 -0.0904,0.0698 -0.2177,0.1324 -0.3818,0.188 -0.1644,0.0555 -0.2897,0.083 -0.3759,0.083 z m 1.0352,-0.9859 c 0,-0.0822 -0.0329,-0.123 -0.0986,-0.123 -0.1151,0 -0.2897,0.1415 -0.5239,0.4249 -0.1397,0.1727 -0.263,0.3657 -0.3696,0.5794 0.0697,0 0.1715,-0.0246 0.305,-0.0739 0.1335,-0.0494 0.2494,-0.1151 0.3481,-0.1973 0.2259,-0.1931 0.339,-0.3963 0.339,-0.6101 z m 2.0704,-0.0861 c -0.5054,0.8872 -0.758,1.4666 -0.758,1.7376 0,0.1069 0.0392,0.1602 0.1171,0.1602 0.2095,0 0.491,-0.3552 0.8442,-1.0659 0.0246,-0.0575 0.0493,-0.0802 0.074,-0.068 0.0246,0.0125 0.0371,0.0289 0.0371,0.0493 0,0.0207 -0.008,0.0454 -0.0247,0.074 -0.2177,0.4397 -0.4016,0.7427 -0.5516,0.9091 -0.1499,0.1661 -0.2999,0.2494 -0.4498,0.2494 -0.15,0 -0.264,-0.0575 -0.3419,-0.1726 -0.0411,-0.0533 -0.0618,-0.1261 -0.0618,-0.2185 0,-0.0925 0.0207,-0.2044 0.0618,-0.336 0.0411,-0.1315 0.1539,-0.3449 0.3387,-0.6409 0.0454,-0.074 0.0678,-0.1323 0.0678,-0.1754 0,-0.0434 -0.0349,-0.0649 -0.1046,-0.0649 -0.0697,0 -0.2033,0.0924 -0.4006,0.2775 -0.2956,0.271 -0.5813,0.6777 -0.8566,1.22 -0.0246,0.0411 -0.0521,0.0666 -0.083,0.0768 -0.0309,0.0105 -0.0916,0.0176 -0.1817,0.0216 -0.0905,0.004 -0.15,0.0144 -0.1789,0.0309 0.0658,-0.1316 0.1953,-0.4006 0.3883,-0.8073 0.345,-0.7189 0.5709,-1.1297 0.6778,-1.2323 0.0493,-0.0493 0.1171,-0.074 0.2032,-0.074 0.0165,0 0.0587,0.0063 0.1265,0.0185 0.0677,0.0124 0.1182,0.0144 0.1508,0.0062 -0.152,0.0822 -0.4006,0.4683 -0.7455,1.1585 0.193,-0.2384 0.3688,-0.4283 0.5269,-0.57 0.1582,-0.1418 0.3481,-0.2733 0.5701,-0.3943 0.2216,-0.1213 0.3841,-0.182 0.4867,-0.182 0.0246,0 0.047,0.0042 0.0677,0.0125 z m 0.0494,1.5281 c 0,-0.341 0.1641,-0.9119 0.4929,-1.7129 h -0.3206 c -0.0204,0 -0.0337,-0.0114 -0.04,-0.0341 -0.006,-0.0224 -0.004,-0.045 0.006,-0.0677 0.0102,-0.0227 0.0255,-0.0337 0.0462,-0.0337 h 0.3696 c 0.148,-0.3246 0.2855,-0.5959 0.4127,-0.8136 0.1276,-0.2177 0.2447,-0.3645 0.3515,-0.4405 0.1066,-0.076 0.1837,-0.1139 0.2311,-0.1139 0.047,0 0.081,0.0039 0.1014,0.0121 0.0947,0.0454 0.1418,0.1387 0.1418,0.2804 0,0.1417 -0.0471,0.3132 -0.1418,0.5145 -0.0944,0.2015 -0.1868,0.3883 -0.2772,0.561 h 0.2959 c 0.0205,0 0.0338,0.011 0.04,0.0337 0.006,0.0227 0.004,0.0453 -0.006,0.0677 -0.0102,0.0227 -0.0255,0.0341 -0.0462,0.0341 h -0.3575 c -0.2259,0.3821 -0.4989,0.7208 -0.8195,1.0167 l -0.1417,0.6285 c -0.0122,0.0533 -0.0184,0.1057 -0.0184,0.157 0,0.0513 0.0144,0.1038 0.0431,0.1571 0.0289,0.0535 0.0739,0.0802 0.1355,0.0802 0.07,0 0.1479,-0.0247 0.2341,-0.074 0.1973,-0.1477 0.415,-0.4581 0.6534,-0.9303 0.0164,-0.0372 0.0357,-0.0596 0.0584,-0.0678 0.0226,-0.0082 0.036,-0.0031 0.0399,0.0153 0.004,0.0184 -0.002,0.0482 -0.0184,0.0893 -0.1355,0.2835 -0.2423,0.4847 -0.3203,0.6041 -0.222,0.3571 -0.4581,0.536 -0.7087,0.536 -0.1272,0 -0.2321,-0.0473 -0.3143,-0.1417 -0.0819,-0.0947 -0.123,-0.2138 -0.123,-0.3575 z m 1.2384,-1.8484 c 0.271,-0.4848 0.4068,-0.8218 0.4068,-1.0106 0,-0.0822 -0.0145,-0.1233 -0.0434,-0.1233 -0.0451,0 -0.1139,0.0658 -0.2064,0.197 -0.0924,0.1315 -0.2474,0.4439 -0.4651,0.9369 z m -0.0802,0.1355 h -0.2894 c -0.0494,0.115 -0.1605,0.388 -0.3328,0.8194 0.2217,-0.2301 0.4292,-0.5031 0.6222,-0.8194 z m 2.1013,0.536 c -0.0737,0.074 -0.1786,0.2412 -0.3141,0.5023 -0.1355,0.2608 -0.2168,0.4558 -0.2435,0.5853 -0.0266,0.1293 -0.0399,0.2342 -0.0399,0.3141 0,0.0802 0.0309,0.1202 0.0924,0.1202 0.0779,0 0.1746,-0.0717 0.2897,-0.2157 0.1684,-0.2095 0.3348,-0.4825 0.4989,-0.8195 0.0164,-0.0369 0.0351,-0.0576 0.0555,-0.0615 0.0329,-0.0125 0.0494,0 0.0494,0.0368 0,0.0207 -0.006,0.0454 -0.0185,0.074 -0.3781,0.7642 -0.6964,1.1461 -0.9552,1.1461 -0.1191,0 -0.2158,-0.0573 -0.2895,-0.1724 -0.0371,-0.0618 -0.0555,-0.1437 -0.0555,-0.2466 0,-0.1026 0.0204,-0.2279 0.0615,-0.3759 -0.3285,0.5301 -0.612,0.7949 -0.8501,0.7949 -0.0658,0 -0.1253,-0.0204 -0.1789,-0.0616 -0.1233,-0.0861 -0.1848,-0.2341 -0.1848,-0.4436 0,-0.4025 0.1746,-0.8112 0.5238,-1.2262 0.197,-0.2299 0.4394,-0.3799 0.7271,-0.4499 0.078,-0.0204 0.152,-0.0306 0.2217,-0.0306 0.1891,0 0.3492,0.0655 0.4808,0.197 0.0411,0.0453 0.0532,0.0884 0.0368,0.1295 -0.0164,0.0411 -0.0513,0.0576 -0.1046,0.0494 -0.0453,-0.148 -0.1437,-0.222 -0.2959,-0.222 -0.1766,0 -0.3943,0.1398 -0.6531,0.419 -0.148,0.1644 -0.2855,0.3574 -0.4128,0.5794 -0.1601,0.267 -0.2403,0.4804 -0.2403,0.6406 0,0.1602 0.0513,0.2404 0.1539,0.2404 0.2466,0 0.5692,-0.3779 0.9674,-1.1339 0.0783,-0.1519 0.1438,-0.2557 0.1973,-0.3109 0.0533,-0.0556 0.1211,-0.0834 0.2033,-0.0834 0.0164,0 0.0587,0.0063 0.1264,0.0184 0.0678,0.0125 0.1179,0.0145 0.1508,0.0063 z m 1.4173,0.2525 c 0.1438,-0.1723 0.2158,-0.3183 0.2158,-0.4373 0,-0.1191 -0.0494,-0.1789 -0.148,-0.1789 -0.1931,0 -0.4127,0.1769 -0.6594,0.5301 -0.0779,0.1108 -0.1539,0.2568 -0.2279,0.4374 -0.0739,0.1808 -0.1111,0.3441 -0.1111,0.4898 0,0.146 0.0298,0.2642 0.0896,0.3543 0.0595,0.0904 0.1519,0.1358 0.2772,0.1358 0.1253,0 0.2413,-0.0298 0.3481,-0.0896 0.1069,-0.0595 0.2084,-0.1539 0.305,-0.2832 0.0967,-0.1295 0.1695,-0.2372 0.2189,-0.3237 0.0493,-0.0861 0.117,-0.2157 0.2032,-0.388 0.0289,-0.0576 0.0536,-0.0811 0.074,-0.0709 0.0204,0.0102 0.0309,0.0247 0.0309,0.0431 0,0.0184 -0.0269,0.0842 -0.0802,0.1973 -0.0533,0.1128 -0.1069,0.2177 -0.1602,0.3141 -0.0536,0.0966 -0.1273,0.2063 -0.2219,0.3296 -0.1642,0.2259 -0.3924,0.3512 -0.684,0.3759 l 0.0124,0.0247 c -0.004,0.004 -0.0309,0.0226 -0.0802,0.0555 -0.1273,0.0862 -0.191,0.1398 -0.191,0.1602 0.0782,-0.0122 0.1819,-0.0184 0.3112,-0.0184 0.1295,0 0.2721,0.0388 0.4283,0.117 0.1562,0.078 0.2342,0.1982 0.2342,0.3603 0,0.1624 -0.1069,0.3155 -0.3204,0.4592 -0.1029,0.0697 -0.2403,0.1049 -0.413,0.1049 -0.1723,0 -0.3543,-0.0238 -0.5454,-0.0709 -0.191,-0.0473 -0.2863,-0.1182 -0.2863,-0.2126 0,-0.0289 0.0103,-0.0433 0.0307,-0.0433 0.0207,0 0.0535,0.0226 0.0986,0.068 0.0987,0.1026 0.2866,0.1539 0.5638,0.1539 0.2772,0 0.4632,-0.074 0.5576,-0.2219 0.0575,-0.0862 0.0864,-0.1775 0.0864,-0.2741 0,-0.0967 -0.0473,-0.1755 -0.1417,-0.2373 -0.0947,-0.0615 -0.1953,-0.0924 -0.3019,-0.0924 -0.1068,0 -0.2097,0.0246 -0.3081,0.074 -0.0986,0.0493 -0.1562,0.074 -0.1726,0.074 -0.0165,0 -0.0369,-0.009 -0.0615,-0.0278 -0.0247,-0.0185 -0.0372,-0.0391 -0.0372,-0.0615 0,-0.0227 0.0176,-0.0536 0.0525,-0.0924 0.0348,-0.0392 0.1652,-0.1367 0.3911,-0.2929 h -0.006 c -0.2302,0 -0.3954,-0.0564 -0.4961,-0.1695 -0.1006,-0.1128 -0.1511,-0.2432 -0.1511,-0.3912 0,-0.1808 0.0443,-0.3778 0.1324,-0.5915 0.0885,-0.2138 0.1902,-0.3986 0.305,-0.5545 0.2384,-0.3246 0.5137,-0.487 0.8258,-0.487 0.1522,0 0.2619,0.036 0.3296,0.108 0.0678,0.0717 0.1018,0.1551 0.1018,0.2495 0,0.1397 -0.0575,0.2588 -0.1726,0.3574 -0.0576,0.0533 -0.1058,0.0799 -0.1446,0.0799 -0.0391,0 -0.0731,-0.0141 -0.1018,-0.0431 z m 2.3415,-0.2525 c -0.0737,0.074 -0.1786,0.2412 -0.3141,0.5023 -0.1355,0.2608 -0.2169,0.4558 -0.2435,0.5853 -0.0267,0.1293 -0.04,0.2342 -0.04,0.3141 0,0.0802 0.0309,0.1202 0.0924,0.1202 0.078,0 0.1746,-0.0717 0.2897,-0.2157 0.1684,-0.2095 0.3348,-0.4825 0.4989,-0.8195 0.0165,-0.0369 0.036,-0.0584 0.0587,-0.0646 0.0227,-0.0063 0.0368,0.0011 0.0431,0.0215 0.006,0.0207 0.001,0.0513 -0.0153,0.0924 -0.3782,0.7642 -0.6965,1.1461 -0.9553,1.1461 -0.1191,0 -0.2157,-0.0573 -0.2894,-0.1724 -0.0372,-0.0618 -0.0556,-0.1437 -0.0556,-0.2466 0,-0.1026 0.0204,-0.2279 0.0615,-0.3759 -0.3285,0.5301 -0.612,0.7949 -0.8501,0.7949 -0.0657,0 -0.1253,-0.0204 -0.1788,-0.0616 -0.1233,-0.0861 -0.1849,-0.2341 -0.1849,-0.4436 0,-0.4025 0.1747,-0.8112 0.5239,-1.2262 0.197,-0.2299 0.4394,-0.3799 0.7271,-0.4499 0.0779,-0.0204 0.1519,-0.0306 0.2216,-0.0306 0.1891,0 0.3493,0.0655 0.4808,0.197 0.0411,0.0453 0.0533,0.0884 0.0368,0.1295 -0.0164,0.0411 -0.0513,0.0576 -0.1046,0.0494 -0.0453,-0.148 -0.1437,-0.222 -0.2959,-0.222 -0.1766,0 -0.3943,0.1398 -0.6531,0.419 -0.148,0.1644 -0.2854,0.3574 -0.4127,0.5794 -0.1602,0.267 -0.2404,0.4804 -0.2404,0.6406 0,0.1602 0.0513,0.2404 0.1539,0.2404 0.2466,0 0.5692,-0.3779 0.9675,-1.1339 0.0782,-0.1519 0.1437,-0.2557 0.1973,-0.3109 0.0533,-0.0556 0.121,-0.0834 0.2032,-0.0834 0.0165,0 0.0587,0.0063 0.1264,0.0184 0.0678,0.0125 0.118,0.0145 0.1509,0.0063 z m -0.0431,-1.0474 c -0.0905,0 -0.2217,-0.0372 -0.3943,-0.1111 -0.1931,-0.0862 -0.341,-0.1293 -0.4437,-0.1293 -0.1026,0 -0.191,0.0678 -0.265,0.2032 -0.008,0.029 -0.0451,0.0329 -0.1108,0.0125 -0.0207,-0.0082 -0.0309,-0.0164 -0.0309,-0.0246 0.1726,-0.3082 0.3614,-0.4624 0.5669,-0.4624 0.0944,0 0.2279,0.036 0.4005,0.108 0.1727,0.0717 0.2824,0.1089 0.3297,0.1109 0.0473,0.0019 0.0791,0.0031 0.0955,0.0031 0.1273,0 0.226,-0.072 0.2957,-0.2157 0.004,-0.0122 0.0164,-0.0185 0.0371,-0.0185 0.0533,0 0.0842,0.0102 0.0924,0.0309 -0.1601,0.3286 -0.3512,0.493 -0.5731,0.493 z m 1.4479,0.5607 c 0.2999,0 0.4499,0.1888 0.4499,0.5669 0,0.1723 -0.0451,0.3572 -0.1355,0.5545 -0.1151,0.267 -0.2875,0.5093 -0.5176,0.727 0.0533,0.1027 0.1499,0.1543 0.2897,0.1543 0.1108,0 0.2157,-0.0556 0.314,-0.1664 0.1233,-0.1276 0.2118,-0.2396 0.2651,-0.3359 0.0533,-0.0967 0.0924,-0.1676 0.117,-0.2126 0.0247,-0.0451 0.0565,-0.11 0.0956,-0.1942 0.0391,-0.0842 0.0626,-0.1355 0.0708,-0.1539 0.008,-0.0185 0.0227,-0.0278 0.0431,-0.0278 0.0411,-0.0043 0.0618,0.0102 0.0618,0.0431 0,0.0124 -0.004,0.0266 -0.0124,0.0431 l -0.0369,0.0864 c -0.0247,0.0573 -0.0431,0.0984 -0.0556,0.123 -0.0121,0.0247 -0.034,0.0689 -0.0646,0.1327 -0.0309,0.0635 -0.0575,0.1139 -0.0802,0.1508 -0.0227,0.0371 -0.0533,0.0865 -0.0924,0.148 -0.0391,0.0615 -0.074,0.1108 -0.1046,0.1479 -0.0309,0.0369 -0.0689,0.078 -0.1143,0.1231 -0.045,0.0453 -0.0881,0.0802 -0.1292,0.1048 -0.1026,0.0616 -0.1993,0.0924 -0.2897,0.0924 -0.1684,0 -0.2999,-0.0532 -0.3943,-0.1601 -0.1891,0.1397 -0.3637,0.2095 -0.5239,0.2095 -0.2999,0 -0.4498,-0.1891 -0.4498,-0.567 0,-0.1726 0.0453,-0.3574 0.1358,-0.5544 0.123,-0.2877 0.2968,-0.5321 0.5204,-0.7333 0.2239,-0.2013 0.4365,-0.3019 0.6378,-0.3019 z m 0.0678,0.191 c -0.1109,0 -0.2424,0.0737 -0.3943,0.2217 -0.152,0.148 -0.2875,0.3492 -0.4065,0.6038 -0.144,0.2959 -0.2158,0.5383 -0.2158,0.7273 0,0.1888 0.0718,0.2835 0.2158,0.2835 0.1026,0 0.2177,-0.0555 0.3449,-0.1664 -0.0657,-0.0947 -0.0986,-0.1953 -0.0986,-0.3022 0.008,-0.1766 0.0802,-0.2647 0.2157,-0.2647 0.0533,0 0.0975,0.0184 0.1324,0.0553 0.0349,0.0371 0.0524,0.0708 0.0524,0.1017 0,0.0309 -0.004,0.0627 -0.0122,0.0956 0.0698,-0.1027 0.15,-0.2486 0.2401,-0.4374 0.1029,-0.2098 0.1542,-0.415 0.1542,-0.6163 0,-0.2012 -0.0759,-0.3019 -0.2281,-0.3019 z"/>
    </g>
    <path
            id="path23"
            style="fill:#868789;fill-rule:evenodd;stroke-width:1.39670646"
            d="m 37.657903,0.827443 c 0,0.520974 -0.169145,1.065828 -0.507561,1.634707 C 36.812198,3.031028 36.345,3.526442 35.749165,3.948385 35.153608,4.37089 34.538359,4.635704 33.903696,4.743392 33.538318,5.479874 33.275038,5.994979 33.11316,6.288286 l -0.188554,0.305323 c 1.185386,0.293307 2.167687,0.739555 2.946071,1.338184 0.395128,0.305599 0.66162,0.679776 0.799336,1.122813 0.07165,0.227663 0.107681,0.421944 0.107681,0.583544 0,0.16188 -0.03171,0.298196 -0.09413,0.408956 -0.06298,0.110484 -0.136328,0.186878 -0.220262,0.22892 -0.0838,0.04191 -0.143575,0.06285 -0.179617,0.06285 -0.03603,0 -0.05391,-0.01487 -0.05391,-0.04511 0,-0.0296 0.03449,-0.118021 0.103357,-0.264816 0.06885,-0.146514 0.103356,-0.318728 0.103356,-0.51636 0,-0.197495 -0.04205,-0.416082 -0.125986,-0.655617 C 36.226542,8.617438 36.070967,8.397318 35.843724,8.196611 35.61606,7.996323 35.300126,7.80749 34.895918,7.630805 34.49171,7.454261 34.141696,7.328837 33.845176,7.253975 33.549076,7.178685 33.15227,7.093633 32.655041,6.997816 c -0.50868,0.712601 -1.03887,1.200333 -1.58959,1.46403 -0.329485,0.161607 -0.621257,0.242328 -0.875736,0.242328 -0.2542,0 -0.480328,-0.05071 -0.677823,-0.152377 C 29.170537,8.383918 29,8.129294 29,7.788077 c 0,-0.341355 0.224451,-0.640668 0.673354,-0.897941 0.508819,-0.299315 1.197675,-0.449043 2.065867,-0.449043 0.311326,0 0.592763,0.02372 0.84417,0.07165 0.269284,-0.41929 0.583544,-0.996828 0.943055,-1.733313 -0.03603,0 -0.06885,0 -0.09902,0 -0.376832,0 -0.727265,-0.06285 -1.050743,-0.188835 C 32.053197,4.46519 31.795923,4.2945 31.604296,4.07871 31.352889,3.797552 31.226905,3.480082 31.226905,3.126854 c 0,-0.185622 0.0468,-0.386329 0.139387,-0.601701 0.09274,-0.215792 0.299314,-0.434376 0.61958,-0.655615 0.320405,-0.221797 0.726146,-0.389261 1.217089,-0.503234 0.07808,-0.01788 0.143728,-0.02695 0.197635,-0.02695 0.05377,0 0.08703,0.01504 0.09888,0.04511 0.01111,0.02976 -0.01111,0.057 -0.07208,0.08073 -0.05979,0.02415 -0.128636,0.04205 -0.206155,0.05391 -0.257833,0.03003 -0.497367,0.116774 -0.718606,0.260487 -0.383257,0.24554 -0.649748,0.622792 -0.799334,1.131611 -0.03603,0.119833 -0.05393,0.235065 -0.05393,0.345964 0,0.110484 0.02096,0.243866 0.06258,0.399457 0.04191,0.15559 0.131849,0.315937 0.269564,0.480608 0.137849,0.164803 0.324735,0.28004 0.561477,0.345686 0.236323,0.06606 0.443036,0.09902 0.619578,0.09902 0.176544,0 0.33968,-0.0091 0.489408,-0.02695 l 0.76372,-1.922147 c 0.526557,-1.35327 1.155214,-2.185429 1.885692,-2.496615 0.191629,-0.07808 0.378925,-0.11691 0.561475,-0.11691 0.18283,0 0.3563,0.05823 0.520971,0.175008 0.164667,0.116774 0.252946,0.258949 0.264817,0.426833 0.0056,0.07165 0.0097,0.140515 0.0097,0.206295 z m -0.377391,0.0089 c 0,-0.227663 -0.104895,-0.341213 -0.314397,-0.341213 -0.305181,0 -0.676565,0.266349 -1.113594,0.799335 -0.341355,0.425156 -0.669162,0.938725 -0.983561,1.540008 -0.314259,0.601842 -0.594159,1.15731 -0.8397,1.66641 0.832299,-0.185621 1.582468,-0.642067 2.249954,-1.369749 0.667626,-0.727406 1.001298,-1.492242 1.001298,-2.294791 z m -4.975486,6.107381 c -0.293309,-0.06565 -0.595837,-0.09888 -0.90744,-0.09888 -0.311185,0 -0.63145,0.04511 -0.960795,0.134925 -0.688575,0.179338 -1.092783,0.433957 -1.212343,0.763302 -0.02415,0.05977 -0.03603,0.11691 -0.03603,0.170682 0,0.15559 0.08507,0.282695 0.255739,0.38172 0.170682,0.09888 0.357975,0.148053 0.561476,0.148053 0.281437,0 0.586756,-0.07765 0.916099,-0.233668 0.49681,-0.239118 0.95814,-0.661479 1.383298,-1.266114 z m 4.041509,-0.673355 c -0.08396,0.203501 -0.125422,0.430747 -0.125422,0.682431 0,0.167606 0.03714,0.300992 0.112005,0.399598 0.07486,0.09888 0.181293,0.148053 0.31873,0.148053 0.545133,0 1.03887,-0.511894 1.482323,-1.535819 0.0415,-0.0958 0.09261,-0.137729 0.152377,-0.125422 0.02415,0.006 0.03603,0.02094 0.03603,0.0447 0,0.02415 -0.06731,0.181291 -0.202381,0.471529 -0.134499,0.290234 -0.270684,0.525439 -0.408538,0.705056 -0.305181,0.419012 -0.682571,0.628798 -1.131472,0.628798 -0.239537,0 -0.443036,-0.07808 -0.610919,-0.233671 -0.167469,-0.15559 -0.251407,-0.368171 -0.251407,-0.637735 0,-0.269284 0.06452,-0.555052 0.193164,-0.857577 0.128635,-0.302526 0.303644,-0.583963 0.525441,-0.844448 0.221656,-0.260208 0.475857,-0.450579 0.763299,-0.570137 0.137729,-0.05977 0.269566,-0.08994 0.395129,-0.08994 0.125833,0 0.242748,0.03603 0.350433,0.10768 0.101664,0.08396 0.152804,0.176684 0.152804,0.278784 0,0.359092 -0.215791,0.70352 -0.646955,1.032584 -0.131422,0.101664 -0.317192,0.193165 -0.556727,0.273894 -0.239535,0.08088 -0.421946,0.121662 -0.547927,0.121662 z M 37.855398,4.83316 c 0,-0.11997 -0.04791,-0.179757 -0.143729,-0.179757 -0.167469,0 -0.422084,0.206713 -0.763299,0.61958 -0.2035,0.251824 -0.383256,0.532844 -0.53885,0.844448 0.101664,0 0.249872,-0.03603 0.444573,-0.107681 0.19442,-0.07208 0.363841,-0.167879 0.507561,-0.287442 0.329066,-0.281435 0.493737,-0.577956 0.493737,-0.889143 z m -0.933559,5.658056 c -0.2637,0 -0.467199,-0.05502 -0.610921,-0.165931 -0.143728,-0.110877 -0.215788,-0.243839 -0.215788,-0.399849 0,-0.15559 0.04511,-0.332137 0.135062,-0.529773 0.15559,-0.305179 0.43703,-0.55072 0.844029,-0.736343 0.305322,-0.143728 0.709528,-0.277107 1.212761,-0.399877 0.502815,-0.122773 0.826293,-0.205176 0.970013,-0.247076 0.215372,-0.376973 0.472647,-1.050742 0.772379,-2.020757 -0.34764,0.61092 -0.637736,1.03887 -0.871405,1.284412 -0.233528,0.245401 -0.469992,0.368172 -0.709527,0.368172 -0.323477,0 -0.511892,-0.134652 -0.565668,-0.404206 -0.02415,-0.04162 -0.03017,-0.104621 -0.01831,-0.188558 0.01248,-0.08396 0.01984,-0.143728 0.02261,-0.179755 0.0029,-0.03562 0.02248,-0.09414 0.05851,-0.175007 0.03576,-0.08073 0.05979,-0.13925 0.07165,-0.174868 0.06577,-0.137849 0.122774,-0.24554 0.170683,-0.323478 -0.0958,0 -0.122756,-0.04791 -0.08073,-0.143729 l 0.161452,-0.314398 c 0.2035,-0.389261 0.371383,-0.718604 0.503232,-0.98789 0.05979,-0.125832 0.176684,-0.188836 0.350016,-0.188836 h 0.547927 c -0.01111,0.01231 -0.04191,0.03603 -0.0898,0.07208 -0.107681,0.07165 -0.188417,0.15559 -0.242328,0.251409 -0.215792,0.371384 -0.484938,0.901155 -0.808414,1.589591 -0.131849,0.281576 -0.197634,0.488149 -0.197634,0.619998 0,0.131576 0.02261,0.22459 0.06731,0.278365 0.04511,0.05391 0.10657,0.08073 0.184086,0.08073 0.114125,0 0.272359,-0.119851 0.476278,-0.359093 0.424877,-0.497229 0.89487,-1.278404 1.409835,-2.344232 0.06577,-0.125832 0.18255,-0.188836 0.350433,-0.188836 h 0.485078 C 41.149068,4.671589 41.026293,4.807768 40.936347,4.972577 40.846527,5.136833 40.749187,5.360163 40.644156,5.6416 40.539688,5.922756 40.407832,6.297215 40.249025,6.763993 40.090786,7.231192 39.969127,7.581625 39.885603,7.814737 40.448197,7.647267 40.87936,7.35075 41.178675,6.926011 41.310524,6.74025 41.49894,6.410906 41.744481,5.9377 c 0.04191,-0.08396 0.07962,-0.116774 0.112432,-0.09847 0.03282,0.01774 0.04945,0.0415 0.04945,0.07165 0,0.03003 -0.04945,0.14525 -0.14848,0.345544 -0.09859,0.200707 -0.198748,0.386468 -0.300848,0.557146 -0.101818,0.170546 -0.23325,0.345544 -0.395129,0.525303 -0.161606,0.179755 -0.341356,0.32194 -0.538848,0.426833 -0.197637,0.104467 -0.460915,0.216908 -0.790257,0.336466 -0.461192,0.838581 -0.925318,1.455089 -1.392099,1.850216 -0.43703,0.359514 -0.910093,0.53885 -1.418913,0.53885 z M 36.400868,9.602354 c -0.0662,0.131422 -0.09902,0.252944 -0.09902,0.363423 0,0.110894 0.04191,0.196375 0.125832,0.256155 0.08396,0.05979 0.188556,0.08994 0.314398,0.08994 0.347221,0 0.718606,-0.17822 1.113735,-0.534519 0.395127,-0.356302 0.742348,-0.738021 1.041663,-1.145021 l 0.197495,-0.332556 c -0.987752,0.257693 -1.610542,0.443035 -1.867817,0.557008 -0.383255,0.167469 -0.658827,0.416078 -0.826289,0.745561 z m 8.073941,-4.383145 c -0.107681,0.107972 -0.260625,0.35197 -0.45812,0.732014 -0.197634,0.380462 -0.315515,0.664692 -0.354762,0.853107 -0.03883,0.188977 -0.05825,0.341355 -0.05825,0.458121 0,0.116773 0.04483,0.175427 0.134652,0.175427 0.113697,0 0.254619,-0.104895 0.422085,-0.314399 0.245399,-0.3056 0.488149,-0.70352 0.727684,-1.194882 0.02372,-0.05379 0.05071,-0.08353 0.08073,-0.08939 0.04791,-0.01831 0.07165,0 0.07165,0.05379 0,0.02976 -0.0084,0.06577 -0.02695,0.10768 C 44.462805,7.114411 43.998821,7.671 43.621571,7.671 c -0.173472,0 -0.314401,-0.08353 -0.422087,-0.251408 -0.05377,-0.08982 -0.08073,-0.209367 -0.08073,-0.359095 0,-0.14959 0.0296,-0.332554 0.08982,-0.547927 -0.47907,0.772519 -0.892356,1.15843 -1.239577,1.15843 -0.0958,0 -0.182551,-0.0296 -0.260486,-0.08939 -0.179338,-0.125986 -0.269286,-0.341635 -0.269286,-0.646954 0,-0.586756 0.254202,-1.182592 0.76344,-1.787226 0.287302,-0.33521 0.64053,-0.553794 1.059821,-0.655614 0.113544,-0.03003 0.221238,-0.04511 0.323058,-0.04511 0.275571,0 0.5091,0.0958 0.700729,0.287443 0.05979,0.06606 0.07808,0.129063 0.05391,0.188834 -0.02372,0.05979 -0.07486,0.08353 -0.152804,0.07165 -0.06577,-0.215372 -0.209507,-0.32306 -0.431162,-0.32306 -0.257415,0 -0.574467,0.203502 -0.951857,0.610502 -0.215791,0.239535 -0.416079,0.521112 -0.6017,0.84459 -0.233669,0.389121 -0.350434,0.700308 -0.350434,0.933837 0,0.233669 0.07486,0.350435 0.224451,0.350435 0.359512,0 0.829504,-0.551142 1.410254,-1.653003 0.113697,-0.22124 0.209508,-0.372502 0.287441,-0.453232 0.07765,-0.08073 0.176544,-0.121235 0.296103,-0.121235 0.02415,0 0.08561,0.0089 0.184504,0.02695 0.09859,0.0179 0.171935,0.02094 0.219841,0.0089 z M 50.57311,4.438031 c 0,-0.413425 -0.194421,-0.619579 -0.583684,-0.619579 -0.05377,0 -0.11997,0.0043 -0.197493,0.01333 -0.07808,0.0087 -0.13185,-0.01077 -0.162017,-0.05866 -0.04791,-0.06565 0.03017,-0.110757 0.233669,-0.134498 0.07208,-0.01179 0.143728,-0.01831 0.21579,-0.01831 0.347223,0 0.583545,0.150138 0.709388,0.449459 0.05391,0.125423 0.08088,0.285766 0.08088,0.480188 0,0.194841 -0.08396,0.438707 -0.251407,0.732014 C 50.324788,5.814958 49.863597,6.21316 49.234799,6.476437 49.025432,6.566377 48.808523,6.6115 48.583934,6.6115 48.359064,6.6115 48.127071,6.55451 47.887535,6.440817 47.4445,6.231033 47.136107,5.8806 46.962637,5.389658 c -0.06565,-0.191629 -0.09888,-0.432282 -0.09888,-0.722936 0,-0.290236 0.08073,-0.657151 0.242608,-1.100187 0.370958,-0.868334 0.981879,-1.607472 1.832332,-2.21839 0.909817,-0.658408 1.76027,-0.987751 2.550527,-0.987751 0.670698,0 1.1196,0.269144 1.347265,0.807994 0.101835,0.233669 0.152804,0.515106 0.152804,0.84459 0,0.107681 -0.0075,0.218445 -0.01815,0.332137 -0.05976,0.52097 -0.215377,1.116804 -0.466784,1.787084 -0.04191,0.114108 -0.06298,0.190512 -0.06298,0.22934 0,0.03868 0.0084,0.0581 0.02695,0.0581 0.02976,0.0065 0.08073,-0.05657 0.152377,-0.188416 0.443453,-0.808412 0.931186,-1.533024 1.464163,-2.173553 0.173758,-0.209506 0.38326,-0.380045 0.628658,-0.511894 0.269707,-0.143728 0.510365,-0.21537 0.722941,-0.21537 0.212716,0 0.380187,0.07751 0.50323,0.233527 0.122773,0.15559 0.184086,0.362306 0.184086,0.61958 0,0.604634 -0.236737,1.613755 -0.709809,3.026802 -0.09585,0.281158 -0.15559,0.460915 -0.179337,0.538849 0.48494,-0.760505 1.094328,-1.597134 1.827458,-2.510439 0.733687,-0.913028 1.384549,-1.453414 1.953572,-1.620878 0.101664,-0.03017 0.191631,-0.04526 0.269568,-0.04526 0.227235,0 0.374168,0.114124 0.439821,0.341354 0.02419,0.07794 0.03601,0.16788 0.03601,0.269566 0,0.305318 -0.11956,0.697654 -0.359101,1.176724 -0.491353,0.981885 -0.826285,1.763065 -1.00604,2.343814 -0.245408,0.766513 -0.368172,1.290279 -0.368172,1.571856 0,0.281433 0.02697,0.514964 0.08071,0.700727 0.107698,0.370964 0.392481,0.556586 0.85325,0.556586 0.02419,0 0.07319,-0.0014 0.148053,-0.0043 0.0749,-0.0031 0.116774,0.01043 0.125987,0.04037 0.0085,0.02976 -0.01111,0.05699 -0.06298,0.08088 -0.05073,0.02401 -0.101887,0.03603 -0.152804,0.03603 -0.05073,0 -0.09103,-0.0031 -0.121235,-0.0092 -0.945846,-0.0958 -1.41892,-0.580752 -1.41892,-1.454949 0,-0.317193 0.06457,-0.678242 0.193165,-1.082029 0.12879,-0.404207 0.238006,-0.714276 0.327808,-0.929648 0.143728,-0.347222 0.445829,-1.026998 0.907166,-2.038912 0.161453,-0.37739 0.242185,-0.664833 0.242185,-0.862328 0,-0.197632 -0.0835,-0.296101 -0.251404,-0.296101 -0.233534,0 -0.595839,0.239536 -1.086783,0.718466 -0.251404,0.251408 -0.523756,0.558264 -0.817063,0.920568 -0.293449,0.362307 -0.727415,0.996969 -1.302293,1.903992 -0.574891,0.907022 -0.940269,1.546434 -1.095854,1.9174 -0.137712,0.323476 -0.320272,0.484936 -0.547936,0.484936 -0.16159,0 -0.257414,-0.05657 -0.287441,-0.170546 -0.01784,-0.04791 -0.01784,-0.08521 0,-0.112005 0.01817,-0.02695 0.07492,-0.127525 0.170682,-0.30099 0.09585,-0.173751 0.194694,-0.356301 0.296523,-0.547926 0.101664,-0.191629 0.222916,-0.452114 0.363841,-0.781599 0.140515,-0.328923 0.270814,-0.664272 0.390794,-1.005629 0.287021,-0.844448 0.481725,-1.712642 0.583541,-2.604718 0.01111,-0.101664 0.01784,-0.22878 0.01784,-0.381579 0,-0.152805 -0.04052,-0.274034 -0.121235,-0.363843 -0.08071,-0.08994 -0.165914,-0.134653 -0.255735,-0.134653 -0.293447,0 -0.616783,0.22124 -0.970016,0.664693 -0.479071,0.592762 -0.895141,1.175049 -1.248375,1.746861 -0.353504,0.571671 -0.624327,1.052279 -0.812742,1.441542 -0.188835,0.389122 -0.40742,0.857576 -0.655614,1.405506 -0.248613,0.547927 -0.380464,0.8397 -0.395548,0.875735 -0.0147,0.03562 -0.03562,0.08073 -0.06257,0.134652 -0.02695,0.05379 -0.04943,0.104895 -0.06774,0.152804 -0.07751,0.173332 -0.245403,0.260485 -0.502817,0.260485 -0.14959,0 -0.230315,-0.04791 -0.242187,-0.143711 0,-0.01815 0.0029,-0.03924 0.0084,-0.06298 0.395127,-0.61092 0.832157,-1.535681 1.311227,-2.775397 0.610921,-1.568501 0.91624,-2.712404 0.91624,-3.431009 0,-0.855902 -0.353227,-1.284272 -1.059961,-1.284272 -0.454907,0 -1.028114,0.218584 -1.719765,0.655614 -0.691788,0.43703 -1.264996,0.997389 -1.719905,1.67982 -0.179755,0.269284 -0.314397,0.529769 -0.404205,0.781177 -0.15559,0.461331 -0.23367,0.826291 -0.23367,1.095855 0,0.772519 0.257832,1.2812 0.772519,1.526741 0.179757,0.08982 0.362166,0.134652 0.547927,0.134652 0.646536,0 1.176586,-0.350014 1.589593,-1.050742 0.209784,-0.353227 0.314397,-0.66162 0.314397,-0.924901 z m 10.211882,0.07165 c 0.437027,0 0.65561,0.275569 0.65561,0.826291 0,0.251407 -0.0662,0.520972 -0.197637,0.808414 -0.167879,0.389263 -0.419285,0.742348 -0.754635,1.05982 0.07803,0.149728 0.218585,0.22459 0.422078,0.22459 0.162017,0 0.314406,-0.08088 0.458125,-0.242747 0.179755,-0.185344 0.308398,-0.348757 0.386335,-0.489406 0.0777,-0.140514 0.134652,-0.243864 0.170665,-0.309929 0.03559,-0.06577 0.08244,-0.159914 0.138977,-0.282693 0.05695,-0.122773 0.09146,-0.197635 0.103374,-0.224451 0.01111,-0.02695 0.03278,-0.04037 0.06298,-0.04037 0.05975,-0.006 0.08985,0.01453 0.08985,0.06244 0,0.01829 -0.0055,0.03924 -0.01817,0.06299 l -0.05396,0.125986 c -0.03559,0.08396 -0.06254,0.143729 -0.08071,0.179757 -0.01785,0.03562 -0.04945,0.100126 -0.09425,0.192745 -0.04471,0.09303 -0.08394,0.166342 -0.116774,0.220122 -0.03278,0.05393 -0.07748,0.125833 -0.134652,0.21537 -0.05697,0.08994 -0.107681,0.16188 -0.152804,0.215793 -0.0447,0.05379 -0.10016,0.113697 -0.165931,0.179755 -0.06609,0.06565 -0.129046,0.116774 -0.188826,0.152377 -0.149591,0.08994 -0.290106,0.135062 -0.42195,0.135062 -0.245537,0 -0.437167,-0.07808 -0.57488,-0.233671 -0.275574,0.203502 -0.529774,0.305322 -0.763306,0.305322 -0.437167,0 -0.655751,-0.275573 -0.655751,-0.826295 0,-0.251406 0.06577,-0.52097 0.197637,-0.808413 0.179754,-0.418871 0.432698,-0.775312 0.758965,-1.068619 0.32627,-0.29331 0.636202,-0.440243 0.929649,-0.440243 z m 0.09843,0.278363 c -0.161453,0 -0.353083,0.107972 -0.57474,0.323478 -0.221378,0.215653 -0.419015,0.509098 -0.592762,0.880065 -0.209363,0.431163 -0.314406,0.78425 -0.314406,1.05982 0,0.275571 0.104997,0.413426 0.314406,0.413426 0.149727,0 0.317467,-0.08115 0.503228,-0.24275 -0.09585,-0.137712 -0.143711,-0.284228 -0.143711,-0.439821 0.01111,-0.257833 0.116774,-0.386468 0.314402,-0.386468 0.07748,0 0.142053,0.02695 0.192738,0.08073 0.05114,0.05393 0.07642,0.103356 0.07642,0.14848 0,0.04483 -0.0055,0.09107 -0.01772,0.138976 0.101664,-0.14959 0.218443,-0.362166 0.349869,-0.637316 0.150154,-0.305738 0.225011,-0.605053 0.225011,-0.898362 0,-0.293447 -0.110894,-0.44024 -0.332696,-0.44024 z m 3.987738,-0.08088 c -0.736344,1.293489 -1.104657,2.137658 -1.104657,2.532787 0,0.155881 0.05675,0.233531 0.170666,0.233531 0.305324,0 0.715399,-0.517899 1.230502,-1.553557 0.03559,-0.08396 0.07168,-0.116774 0.107681,-0.09901 0.03559,0.01831 0.05396,0.04205 0.05396,0.07208 0,0.02976 -0.01111,0.06577 -0.03601,0.10768 -0.317197,0.640672 -0.585218,1.082449 -0.803801,1.324778 -0.218454,0.242328 -0.437039,0.363842 -0.655622,0.363842 -0.218584,0 -0.384787,-0.08396 -0.49848,-0.251408 -0.05975,-0.07808 -0.08985,-0.184084 -0.08985,-0.319147 0,-0.134652 0.02998,-0.297638 0.08985,-0.489265 0.05975,-0.191629 0.224591,-0.502817 0.49373,-0.933979 0.0662,-0.108108 0.0991,-0.193306 0.0991,-0.256157 0,-0.06299 -0.05116,-0.09426 -0.152804,-0.09426 -0.101784,0 -0.29624,0.134653 -0.583681,0.404207 -0.431171,0.395128 -0.847241,0.987892 -1.248246,1.778148 -0.03601,0.06005 -0.07642,0.09734 -0.121508,0.112432 -0.04482,0.01504 -0.133097,0.02526 -0.264958,0.03114 -0.131832,0.006 -0.218584,0.02109 -0.260487,0.04526 0.09585,-0.191629 0.284646,-0.583963 0.56581,-1.176725 0.503228,-1.047948 0.832572,-1.646576 0.988167,-1.796304 0.07169,-0.07165 0.170666,-0.10768 0.296102,-0.10768 0.02419,0 0.08567,0.0091 0.184086,0.02695 0.09898,0.01788 0.172209,0.02094 0.220119,0.0091 -0.221237,0.11956 -0.58354,0.68257 -1.08678,1.688199 0.281582,-0.347221 0.537738,-0.62391 0.768197,-0.830622 0.230308,-0.206713 0.507561,-0.398341 0.830615,-0.574884 0.323477,-0.176544 0.559802,-0.264815 0.709391,-0.264815 0.03601,0 0.069,0.006 0.09898,0.01772 z m 0.07168,2.227468 c 0,-0.496809 0.239539,-1.329108 0.718609,-2.496614 h -0.467203 c -0.02998,0 -0.04945,-0.01658 -0.05825,-0.0496 -0.0097,-0.03282 -0.0055,-0.06565 0.0085,-0.09888 0.01487,-0.03282 0.03762,-0.04918 0.06727,-0.04918 h 0.539125 c 0.21537,-0.473065 0.41622,-0.868192 0.601424,-1.185664 0.185762,-0.317192 0.356296,-0.531446 0.512311,-0.642205 0.15559,-0.110484 0.267613,-0.165931 0.336607,-0.165931 0.0689,0 0.118312,0.006 0.14848,0.01788 0.137301,0.06565 0.206289,0.201825 0.206289,0.408536 0,0.206713 -0.069,0.456444 -0.206289,0.749893 -0.137849,0.293307 -0.272781,0.566084 -0.404206,0.817492 h 0.431018 c 0.02978,0 0.04911,0.01641 0.05825,0.04917 0.0097,0.03324 0.0055,0.06606 -0.0085,0.09888 -0.0147,0.03295 -0.0373,0.0496 -0.06727,0.0496 H 66.838031 C 66.508969,4.994597 66.11063,5.488751 65.643564,5.919915 l -0.206569,0.9161 c -0.01826,0.07765 -0.02697,0.154052 -0.02697,0.228919 0,0.07473 0.02053,0.15113 0.06254,0.2292 0.04191,0.07765 0.108108,0.116774 0.1975,0.116774 0.102194,0 0.215789,-0.03603 0.341346,-0.108108 0.28744,-0.215372 0.604917,-0.667486 0.952133,-1.355922 0.02419,-0.05393 0.05223,-0.08674 0.08543,-0.09901 0.03299,-0.01179 0.05234,-0.0043 0.05825,0.02261 0.0055,0.0268 -0.0031,0.07039 -0.02697,0.130174 -0.19749,0.413007 -0.353083,0.706735 -0.467196,0.880207 -0.323056,0.52097 -0.667486,0.781456 -1.032445,0.781456 -0.185763,0 -0.338564,-0.06885 -0.458124,-0.206713 -0.11997,-0.137711 -0.179757,-0.311187 -0.179757,-0.520971 z m 1.80538,-2.694247 c 0.395137,-0.706733 0.592625,-1.197675 0.592625,-1.473107 0,-0.11956 -0.02096,-0.179477 -0.06287,-0.179477 -0.06577,0 -0.166358,0.0958 -0.300993,0.287443 -0.134499,0.191629 -0.360628,0.646536 -0.678106,1.365141 z m -0.116774,0.197633 h -0.42208 c -0.07211,0.16747 -0.233532,0.565665 -0.484939,1.194464 0.323057,-0.335349 0.625446,-0.733689 0.907019,-1.194464 z m 0.727272,1.832339 c -0.08394,0.203502 -0.125576,0.430746 -0.125576,0.682432 0,0.167606 0.0373,0.30099 0.112159,0.399598 0.07469,0.09888 0.181292,0.148052 0.318725,0.148052 0.545142,0 1.038872,-0.511893 1.482187,-1.535818 0.04158,-0.0958 0.09274,-0.137712 0.15253,-0.125423 0.02419,0.006 0.03601,0.02094 0.03601,0.0447 0,0.02415 -0.06727,0.18129 -0.202377,0.471528 C 68.997724,6.645661 68.86155,6.880867 68.723838,7.060482 68.418516,7.479494 68.041262,7.68928 67.592219,7.68928 67.35283,7.68928 67.149325,7.6112 66.981445,7.455611 66.813993,7.30002 66.730038,7.087438 66.730038,6.817875 c 0,-0.269285 0.06449,-0.555051 0.193168,-0.857578 0.128635,-0.302528 0.303635,-0.583963 0.525434,-0.844448 0.221657,-0.260206 0.475857,-0.450579 0.763308,-0.570136 0.137729,-0.05977 0.269556,-0.08994 0.395123,-0.08994 0.12585,0 0.242604,0.03603 0.35029,0.107681 0.101783,0.08396 0.15294,0.176686 0.15294,0.278782 0,0.359093 -0.215788,0.703522 -0.646949,1.032586 -0.131439,0.101664 -0.317199,0.193165 -0.556729,0.273893 -0.23954,0.08088 -0.42209,0.121662 -0.547926,0.121662 z m 1.50886,-1.43721 c 0,-0.11997 -0.04793,-0.179757 -0.143729,-0.179757 -0.167469,0 -0.422088,0.206713 -0.763306,0.61958 -0.203496,0.251826 -0.38325,0.532844 -0.538847,0.844448 0.101665,0 0.249729,-0.03603 0.444573,-0.107681 0.194426,-0.07208 0.363842,-0.167879 0.507561,-0.287441 0.329063,-0.281436 0.493739,-0.577957 0.493739,-0.889142 z m 1.536095,-0.673494 c -0.08394,0.07165 -0.176542,0.107681 -0.27822,0.107681 -0.101784,0 -0.182967,-0.03603 -0.242755,-0.107681 -0.05975,-0.07208 -0.08394,-0.158803 -0.07169,-0.260485 0.01772,-0.101818 0.0689,-0.188834 0.152377,-0.260485 0.08394,-0.07208 0.176542,-0.10768 0.278789,-0.10768 0.101665,0 0.184085,0.03562 0.246656,0.10768 0.06286,0.07165 0.08543,0.158667 0.0676,0.260485 -0.01817,0.101665 -0.0689,0.188416 -0.152804,0.260485 z M 69.52362,7.455689 c 0.113544,0 0.233534,-0.05699 0.35909,-0.170546 0.221658,-0.221795 0.503242,-0.67349 0.844448,-1.356481 0.04158,-0.08939 0.08349,-0.116346 0.125576,-0.08073 0.01111,0.01231 0.01815,0.03171 0.01815,0.05852 0,0.02695 -0.02419,0.09274 -0.07211,0.197633 -0.04793,0.104468 -0.09146,0.19917 -0.130191,0.282693 -0.0388,0.08396 -0.113697,0.220122 -0.224591,0.408956 -0.110758,0.188416 -0.210899,0.333812 -0.300854,0.435492 -0.245397,0.281577 -0.477393,0.422085 -0.695976,0.422085 -0.218585,0 -0.375716,-0.06577 -0.471526,-0.197632 -0.09575,-0.131712 -0.143728,-0.278225 -0.143728,-0.440244 0,-0.161452 0.0388,-0.338003 0.116774,-0.52963 l 0.57488,-1.464168 c 0.01111,-0.03562 0.01774,-0.08353 0.01774,-0.143728 0,-0.05979 -0.03589,-0.137729 -0.107681,-0.233251 l 0.494149,-0.0089 c 0.137438,0 0.218583,0.02542 0.242335,0.0764 0.02419,0.05071 0.0055,0.13031 -0.05396,0.237998 l -0.718612,1.67954 c -0.101665,0.22124 -0.152377,0.410074 -0.152377,0.565666 0,0.173889 0.09264,0.260485 0.278358,0.260485 z m 2.424961,-3.404053 c 0,0.269703 -0.170682,0.524183 -0.512311,0.763718 0.119987,0.006 0.279905,0.0089 0.480607,0.0089 0.200712,0 0.453792,-0.01504 0.758977,-0.04483 0.01111,0.01788 0.01784,0.06577 0.01784,0.143711 0,0.07765 -0.03557,0.192886 -0.107681,0.345688 -0.07168,0.152804 -0.136173,0.284228 -0.193167,0.395125 -0.05675,0.110895 -0.110484,0.215793 -0.16159,0.314399 -0.05073,0.09888 -0.10768,0.220122 -0.170682,0.363843 -0.06287,0.143729 -0.115236,0.275571 -0.157129,0.395129 -0.149727,0.455186 -0.125576,0.68243 0.07211,0.68243 0.251404,0 0.622371,-0.50002 1.113724,-1.499643 0.0415,-0.07808 0.07597,-0.107681 0.102946,-0.08994 0.02675,0.01789 0.04041,0.04051 0.04041,0.06731 0,0.02695 -0.0388,0.11997 -0.116483,0.278363 -0.07791,0.158803 -0.16188,0.321942 -0.251684,0.489686 -0.08951,0.167606 -0.23046,0.362305 -0.422089,0.583683 -0.227245,0.27557 -0.445831,0.413286 -0.655612,0.413286 -0.233674,0 -0.395135,-0.140926 -0.485079,-0.422366 -0.01772,-0.05391 -0.02687,-0.134652 -0.02687,-0.242327 0,-0.107681 0.03439,-0.251408 0.103168,-0.431163 0.069,-0.179757 0.178219,-0.398342 0.327806,-0.655613 0.149728,-0.257414 0.233673,-0.408676 0.251406,-0.453372 0.01825,-0.04511 0.02697,-0.08869 0.02697,-0.130311 0,-0.185623 -0.239528,-0.284648 -0.7186,-0.296521 l -0.107681,0.287441 c -0.377251,0.987891 -0.739136,1.649373 -1.086782,1.984721 -0.05976,0.05393 -0.08943,0.03603 -0.08943,-0.05379 0,-0.01786 0.0055,-0.03883 0.01774,-0.06299 0.33535,-0.443036 0.625584,-0.966802 0.870994,-1.571435 0.245536,-0.604913 0.41621,-1.179798 0.512031,-1.724514 0.03601,-0.185762 0.119833,-0.278364 0.251682,-0.278364 0.131422,0 0.227248,0.08353 0.287163,0.251409 0.01815,0.05379 0.02719,0.116774 0.02719,0.188414 z m 2.75724,0.458118 c 0.437027,0 0.65561,0.275571 0.65561,0.826293 0,0.251407 -0.0662,0.520972 -0.197637,0.808413 -0.167879,0.389264 -0.419285,0.742349 -0.754628,1.059821 0.07815,0.149728 0.218583,0.22459 0.422074,0.22459 0.162017,0 0.314403,-0.08088 0.458122,-0.242747 0.179755,-0.185344 0.308386,-0.348757 0.386325,-0.489405 0.0777,-0.140515 0.134652,-0.243865 0.170682,-0.30993 0.03559,-0.06577 0.08242,-0.159914 0.138977,-0.282694 0.05695,-0.122756 0.09146,-0.197632 0.103373,-0.22445 0.01111,-0.02695 0.03278,-0.04037 0.06298,-0.04037 0.05975,-0.006 0.08985,0.01453 0.08985,0.06242 0,0.01829 -0.0055,0.03924 -0.01815,0.06299 l -0.05396,0.125987 c -0.03559,0.08396 -0.06254,0.143728 -0.08071,0.179756 -0.01785,0.03562 -0.04945,0.100126 -0.09425,0.192744 -0.04471,0.09302 -0.08394,0.166341 -0.116774,0.220122 -0.03278,0.05392 -0.07748,0.125832 -0.134652,0.215371 -0.05695,0.08994 -0.107698,0.161881 -0.152804,0.215793 -0.0447,0.05379 -0.10016,0.113697 -0.165931,0.179757 -0.0661,0.06565 -0.129046,0.116773 -0.188836,0.152376 -0.149591,0.08994 -0.290094,0.135063 -0.421938,0.135063 -0.245545,0 -0.437163,-0.07808 -0.574887,-0.233669 -0.275564,0.203499 -0.529764,0.305319 -0.763435,0.305319 -0.437028,0 -0.655612,-0.27557 -0.655612,-0.826292 0,-0.251406 0.06577,-0.52097 0.197627,-0.808415 0.179764,-0.41887 0.432708,-0.77531 0.758975,-1.068619 0.326271,-0.293309 0.636204,-0.440242 0.929646,-0.440242 z m 0.09843,0.278364 c -0.161453,0 -0.353078,0.107971 -0.574875,0.323478 -0.221238,0.215652 -0.418875,0.509098 -0.592622,0.880066 -0.209374,0.431163 -0.314406,0.78425 -0.314406,1.059819 0,0.275572 0.104997,0.413426 0.314406,0.413426 0.149727,0 0.317467,-0.08115 0.503228,-0.242749 -0.09585,-0.137712 -0.143728,-0.284229 -0.143728,-0.439821 0.01248,-0.257832 0.116774,-0.38647 0.314394,-0.38647 0.07748,0 0.142053,0.02695 0.192748,0.08073 0.05114,0.05393 0.07642,0.103357 0.07642,0.148463 0,0.04483 -0.0055,0.09107 -0.01772,0.138977 0.101664,-0.149591 0.21844,-0.362167 0.349863,-0.637317 0.150155,-0.305738 0.225012,-0.605055 0.225012,-0.898362 0,-0.293447 -0.110894,-0.440241 -0.332696,-0.440241 z"/>
    <path
            id="path25"
            style="fill:#d7b369;fill-opacity:1;fill-rule:evenodd;stroke-width:0.81716073"
            d="m 14.327773,1.3377 c 0,0.862023 -0.279959,1.76376 -0.839713,2.705048 C 12.92822,4.984035 12.155349,5.803975 11.169445,6.502565 10.18354,7.201075 9.1654395,7.639563 8.11506,7.817867 7.510688,9.036662 7.074732,9.888797 6.807195,10.374273 l -0.312156,0.505332 c 1.9619225,0.485557 3.586928,1.223698 4.875018,2.214587 0.653975,0.505332 1.094915,1.124658 1.32282,1.857816 0.118897,0.376547 0.178386,0.69859 0.178386,0.966128 0,0.267538 -0.05205,0.492912 -0.156076,0.676283 -0.104107,0.183289 -0.225456,0.309622 -0.364128,0.378999 -0.05834,0.02918 -0.386517,0.198896 -0.386517,0.02975 0,-0.04961 0.05703,-0.195711 0.17095,-0.438489 0.113994,-0.242779 0.17095,-0.527641 0.17095,-0.854587 0,-0.327028 -0.06938,-0.688703 -0.208049,-1.085027 -0.05557,-0.158692 -0.130256,-0.312236 -0.223902,-0.460714 -0.03734,-0.0666 -0.08114,-0.129602 -0.13091,-0.187784 C 11.256226,13.338773 10.478208,12.911316 9.7574715,12.5963 9.0886255,12.304002 8.5089315,12.095872 8.018471,11.972072 7.528011,11.84819 6.871586,11.706985 6.049196,11.548455 5.206948,12.727619 4.330052,13.535136 3.418429,13.971092 2.873464,14.23863 2.39044,14.372399 1.969357,14.372399 c -0.421164,0 -0.795179,-0.08425 -1.122206,-0.252665 C 0.282411,13.842308 0,13.421224 0,12.856403 c 0,-0.564822 0.371563,-1.060267 1.114689,-1.486252 0.842247,-0.495445 1.981697,-0.743207 3.41851,-0.743207 0.51522,0 0.98092,0.03963 1.3971,0.118978 0.445842,-0.693606 0.966047,-1.649848 1.560532,-2.868561 -0.05941,0 -0.113913,0 -0.163433,0 -0.62431,0 -1.203922,-0.104025 -1.738999,-0.312156 C 5.053404,7.357156 4.627336,7.074745 4.310196,6.718055 3.894016,6.252355 3.685967,5.727165 3.685967,5.142569 c 0,-0.30717 0.07681,-0.639102 0.230358,-0.995793 C 4.069951,3.790086 4.411769,3.42841 4.941861,3.06175 5.472036,2.695173 6.143333,2.417746 6.955836,2.229473 7.084621,2.199723 7.19363,2.184853 7.282781,2.184853 c 0.08915,0 0.143657,0.02476 0.163515,0.07436 C 7.466076,2.308733 7.426446,2.353353 7.327398,2.3929 7.228278,2.43262 7.114365,2.46228 6.985581,2.48213 6.559431,2.53165 6.163108,2.675307 5.79653,2.9131 5.162331,3.319394 4.721391,3.943622 4.47371,4.785869 4.340268,5.230487 4.369113,5.575574 4.48859,6.019455 c 0.06937,0.257651 0.218018,0.522657 0.445843,0.79518 0.227906,0.272441 0.53761,0.463248 0.928948,0.572257 0.39142,0.10901 0.733239,0.163432 1.025537,0.163432 0.292298,0 0.562288,-0.01488 0.810051,-0.04462 L 8.9623005,4.325069 C 9.8342925,2.085803 10.874621,0.708478 12.083527,0.193259 12.400587,0.064392 12.710209,0 13.012395,0 c 0.302267,0 0.589582,0.09667 0.862027,0.289847 0.27252,0.193177 0.418709,0.428519 0.438484,0.706027 0.0099,0.118896 0.0149,0.232809 0.0149,0.341819 z m -0.624229,0.01478 c 0,-0.376467 -0.173401,-0.56474 -0.520207,-0.56474 -0.505332,0 -1.119674,0.44094 -1.843025,1.32282 C 10.775573,2.814053 10.23306,3.663737 9.7128545,4.659529 9.1926505,5.655321 8.7294845,6.574382 8.3231915,7.416548 9.7005165,7.109377 10.941538,6.353912 12.04634,5.149989 13.151142,3.946148 13.703544,2.680285 13.703544,1.35248 Z M 5.469502,11.459291 C 4.984027,11.350282 4.483597,11.295777 3.968378,11.295777 c -0.515302,0 -1.045312,0.07436 -1.590358,0.222922 -1.13945,0.297283 -1.808296,0.718366 -2.006457,1.263412 -0.156812,0.391829 0.0049,0.705945 0.364127,0.914076 0.282411,0.163433 0.592033,0.24523 0.928948,0.24523 0.4657,0 0.971032,-0.128866 1.515997,-0.386517 0.822391,-0.396323 1.585374,-1.094832 2.288867,-2.095609 z"/>
    <path
            id="path27"
            style="fill:#d7b369;fill-opacity:1;fill-rule:evenodd;stroke-width:0.81716073"
            d="m 12.664441,16.683244 c -0.02975,0.05695 -0.06162,0.115057 -0.09553,0.174464 -0.485639,0.881961 -1.248622,1.54092 -2.289112,1.976956 -0.3468045,0.148643 -0.7060275,0.222922 -1.0776725,0.222922 -0.371563,0 -0.755547,-0.09414 -1.1519525,-0.282411 C 7.316855,18.428373 6.806538,17.848679 6.519142,17.036094 6.410215,16.718954 6.355628,16.320098 6.355628,15.839525 c 0,-0.480572 0.13385,-1.087559 0.40139,-1.820879 C 7.371441,12.581833 8.3821885,11.35797 9.7892565,10.347225 11.295529,9.257214 12.70268,8.712168 14.010707,8.712168 c 1.109871,0 1.853081,0.445924 2.229626,1.337773 0.25765,0.590972 0.290012,1.309664 0.222923,1.947213 -0.09904,0.862105 -0.356694,1.84809 -0.77287,2.957958 -0.06938,0.188274 -0.104111,0.314607 -0.104111,0.379 0,0.06439 0.0149,0.09667 0.04464,0.09667 0.04955,0.0099 0.133771,-0.09414 0.252671,-0.312156 0.73332,-1.337774 1.540916,-2.536793 2.422876,-3.597141 0.287398,-0.346804 0.634201,-0.629295 1.040493,-0.847233 0.445928,-0.237875 0.844781,-0.356772 1.196571,-0.356772 0.351783,0 0.629215,0.128867 0.832357,0.386435 0.203148,0.257651 0.30472,0.599552 0.30472,1.025618 0,1.00086 -0.391422,2.670646 -1.174262,5.009278 -0.158526,0.4657 -0.257651,0.762983 -0.297283,0.891849 0.802699,-1.258509 1.810992,-2.643351 3.024885,-4.154527 1.213893,-1.511175 2.291483,-2.405476 3.232929,-2.682983 0.511301,-0.15044 1.000697,-0.109255 1.174262,0.490541 0.03962,0.128784 0.05942,0.277425 0.05942,0.445842 0,0.505415 -0.198163,1.154486 -0.594564,1.947213 -0.812506,1.625169 -1.367436,2.918327 -1.664717,3.879552 -0.406291,1.268397 -0.60944,2.135486 -0.60944,2.601269 0,0.4657 0.04452,0.852216 0.133771,1.159387 0.178387,0.614342 0.649071,0.921595 1.412135,0.921595 0.03962,0 0.121345,-0.0025 0.245225,-0.0074 0.123798,-0.005 0.193177,0.01732 0.208135,0.06684 0.01478,0.04952 -0.01987,0.09414 -0.104111,0.133769 -0.08425,0.03963 -0.168498,0.05948 -0.252664,0.05948 -0.08425,0 -0.151094,-0.005 -0.200697,-0.01487 -1.565674,-0.15853 -2.348515,-0.961226 -2.348515,-2.40801 0,-0.525189 0.106557,-1.122206 0.31959,-1.791134 0.213033,-0.668846 0.393873,-1.181696 0.542514,-1.538387 0.237793,-0.574791 0.738223,-1.699532 1.501288,-3.374139 0.267535,-0.62431 0.401305,-1.09998 0.401305,-1.427008 0,-0.327027 -0.138669,-0.490541 -0.416182,-0.490541 -0.386432,0 -0.985981,0.396405 -1.798563,1.189132 -0.416182,0.416262 -0.867091,0.924127 -1.352651,1.523597 -0.485472,0.59955 -1.203921,1.649929 -2.15526,3.151216 -0.951339,1.501289 -1.555793,2.559103 -1.813443,3.173526 -0.227904,0.535077 -0.530171,0.802615 -0.906722,0.802615 -0.267534,0 -0.426066,-0.09414 -0.475588,-0.282411 -0.02974,-0.07927 -0.02974,-0.141204 0,-0.185821 0.02968,-0.04453 0.123799,-0.210583 0.282411,-0.497896 0.158532,-0.287396 0.322044,-0.589664 0.490459,-0.906723 0.168504,-0.31714 0.369112,-0.748192 0.602001,-1.293238 0.232897,-0.544965 0.448463,-1.099898 0.646626,-1.66472 0.475669,-1.397263 0.797712,-2.834158 0.966127,-4.310604 0.01987,-0.168499 0.02974,-0.379082 0.02974,-0.631748 0,-0.252665 -0.06684,-0.45336 -0.20069,-0.602002 -0.133689,-0.148642 -0.274897,-0.222922 -0.42362,-0.222922 -0.485554,0 -1.020629,0.366579 -1.605309,1.099899 -0.792731,0.981084 -1.481434,1.944761 -2.066112,2.891115 -0.58468,0.946354 -1.033054,1.741533 -1.345206,2.3857 -0.312158,0.644087 -0.673833,1.41949 -1.085028,2.326212 -0.411278,0.906722 -0.629296,1.389745 -0.654058,1.449235 -0.06733,0.161552 -0.153624,0.310521 -0.215484,0.475669 -0.128866,0.287314 -0.406292,0.431053 -0.832441,0.431053 -0.247762,0 -0.381532,-0.07927 -0.401307,-0.237876 0,-0.02967 0.0049,-0.06432 0.01487,-0.104024 0.653974,-1.010747 1.377325,-2.54178 2.170135,-4.593016 1.010745,-2.596284 1.516162,-4.488909 1.516162,-5.678042 0,-1.41712 -0.584679,-2.125598 -1.753955,-2.125598 -0.753178,0 -1.701983,0.361675 -2.846499,1.085107 -1.1445165,0.723351 -2.0934035,1.64993 -2.8464985,2.779573 -0.2972845,0.445925 -0.5202865,0.876976 -0.6688465,1.293156 -0.257732,0.763065 -0.386518,1.367519 -0.386518,1.813444 0,1.278284 0.42615,2.120614 1.2782855,2.526906 0.297365,0.148641 0.599551,0.222921 0.906722,0.222921 1.0702365,0 1.9472125,-0.579693 2.6310125,-1.739081 0.08,-0.134995 0.150849,-0.265986 0.212462,-0.393055 0.15093,0.06178 0.314199,0.09103 0.477631,0.08482 z"/>
</svg>
